<svg xmlns="http://www.w3.org/2000/svg" viewBox="0 0 1440 320">
  <path fill="#f3f4f5" fill-opacity="0.05" d="M0,320L18.5,272C36.9,224,74,128,111,128C147.7,128,185,224,222,256C258.5,288,295,256,332,256C369.2,256,406,288,443,266.7C480,245,517,171,554,160C590.8,149,628,203,665,213.3C701.5,224,738,192,775,181.3C812.3,171,849,181,886,170.7C923.1,160,960,128,997,133.3C1033.8,139,1071,181,1108,213.3C1144.6,245,1182,267,1218,266.7C1255.4,267,1292,245,1329,202.7C1366.2,160,1403,96,1422,64L1440,32L1440,320L1421.5,320C1403.1,320,1366,320,1329,320C1292.3,320,1255,320,1218,320C1181.5,320,1145,320,1108,320C1070.8,320,1034,320,997,320C960,320,923,320,886,320C849.2,320,812,320,775,320C738.5,320,702,320,665,320C627.7,320,591,320,554,320C516.9,320,480,320,443,320C406.2,320,369,320,332,320C295.4,320,258,320,222,320C184.6,320,148,320,111,320C73.8,320,37,320,18,320L0,320Z"/>
</svg>
