<svg width="693" height="348" viewBox="0 0 693 348" fill="none" xmlns="http://www.w3.org/2000/svg">
<rect x="0.5" y="0.5" width="692" height="347" rx="7.5" stroke="#9EA0A5" stroke-linejoin="round" stroke-dasharray="20 20"/>
<path d="M189.352 176.907C189.352 178.557 188.903 179.819 188.005 180.694C187.112 181.565 185.824 182 184.143 182H181.374V172.006H184.437C185.991 172.006 187.198 172.437 188.06 173.298C188.921 174.159 189.352 175.362 189.352 176.907ZM188.121 176.948C188.121 175.645 187.793 174.663 187.137 174.002C186.485 173.341 185.514 173.011 184.225 173.011H182.536V180.995H183.951C185.337 180.995 186.378 180.656 187.075 179.977C187.772 179.293 188.121 178.284 188.121 176.948ZM194.834 174.371C195.167 174.371 195.465 174.398 195.729 174.453L195.572 175.506C195.262 175.438 194.989 175.403 194.752 175.403C194.146 175.403 193.626 175.649 193.193 176.142C192.765 176.634 192.551 177.247 192.551 177.98V182H191.416V174.508H192.353L192.482 175.896H192.537C192.815 175.408 193.15 175.032 193.542 174.768C193.934 174.503 194.365 174.371 194.834 174.371ZM201.738 182L201.513 180.934H201.458C201.084 181.403 200.711 181.722 200.337 181.891C199.968 182.055 199.505 182.137 198.949 182.137C198.206 182.137 197.623 181.945 197.199 181.562C196.78 181.18 196.57 180.635 196.57 179.929C196.57 178.416 197.78 177.623 200.2 177.55L201.472 177.509V177.044C201.472 176.456 201.344 176.023 201.089 175.745C200.838 175.463 200.435 175.321 199.879 175.321C199.255 175.321 198.548 175.513 197.76 175.896L197.411 175.027C197.78 174.827 198.184 174.67 198.621 174.556C199.063 174.442 199.505 174.385 199.947 174.385C200.84 174.385 201.501 174.583 201.93 174.979C202.363 175.376 202.579 176.012 202.579 176.887V182H201.738ZM199.175 181.2C199.881 181.2 200.435 181.007 200.836 180.619C201.242 180.232 201.444 179.689 201.444 178.992V178.315L200.31 178.363C199.407 178.395 198.756 178.536 198.354 178.787C197.958 179.033 197.76 179.418 197.76 179.942C197.76 180.353 197.883 180.665 198.129 180.879C198.38 181.093 198.728 181.2 199.175 181.2ZM211.056 174.508V175.226L209.668 175.39C209.796 175.549 209.91 175.759 210.01 176.019C210.11 176.274 210.16 176.563 210.16 176.887C210.16 177.62 209.91 178.206 209.408 178.644C208.907 179.081 208.219 179.3 207.344 179.3C207.12 179.3 206.911 179.282 206.715 179.245C206.232 179.5 205.99 179.822 205.99 180.209C205.99 180.414 206.075 180.567 206.243 180.667C206.412 180.763 206.701 180.811 207.111 180.811H208.438C209.249 180.811 209.871 180.981 210.304 181.323C210.741 181.665 210.96 182.162 210.96 182.813C210.96 183.643 210.627 184.274 209.962 184.707C209.297 185.145 208.326 185.363 207.05 185.363C206.07 185.363 205.313 185.181 204.78 184.816C204.252 184.452 203.987 183.937 203.987 183.271C203.987 182.816 204.133 182.422 204.425 182.089C204.716 181.756 205.127 181.531 205.655 181.412C205.464 181.326 205.302 181.191 205.17 181.009C205.042 180.826 204.979 180.615 204.979 180.373C204.979 180.1 205.051 179.86 205.197 179.655C205.343 179.45 205.573 179.252 205.888 179.061C205.5 178.901 205.184 178.63 204.938 178.247C204.696 177.864 204.575 177.427 204.575 176.935C204.575 176.114 204.821 175.483 205.313 175.041C205.806 174.594 206.503 174.371 207.405 174.371C207.797 174.371 208.15 174.417 208.465 174.508H211.056ZM205.081 183.258C205.081 183.663 205.252 183.971 205.594 184.181C205.936 184.39 206.425 184.495 207.063 184.495C208.016 184.495 208.72 184.352 209.176 184.064C209.636 183.782 209.866 183.397 209.866 182.909C209.866 182.504 209.741 182.221 209.49 182.062C209.24 181.907 208.768 181.829 208.075 181.829H206.715C206.2 181.829 205.799 181.952 205.512 182.198C205.225 182.444 205.081 182.798 205.081 183.258ZM205.696 176.907C205.696 177.431 205.844 177.828 206.141 178.097C206.437 178.366 206.849 178.5 207.378 178.5C208.485 178.5 209.039 177.962 209.039 176.887C209.039 175.761 208.479 175.198 207.357 175.198C206.824 175.198 206.414 175.342 206.127 175.629C205.84 175.916 205.696 176.342 205.696 176.907ZM217.857 173.995C217.857 174.31 217.939 174.61 218.104 174.897C218.268 175.18 218.548 175.522 218.944 175.923C219.532 175.581 219.94 175.267 220.168 174.979C220.4 174.688 220.517 174.353 220.517 173.975C220.517 173.624 220.398 173.339 220.161 173.12C219.929 172.897 219.617 172.785 219.225 172.785C218.819 172.785 218.489 172.895 218.233 173.113C217.983 173.332 217.857 173.626 217.857 173.995ZM218.917 181.118C220.015 181.118 220.927 180.767 221.651 180.065L218.664 177.167C218.158 177.477 217.8 177.734 217.591 177.939C217.381 178.14 217.226 178.356 217.126 178.589C217.026 178.821 216.976 179.086 216.976 179.382C216.976 179.915 217.151 180.339 217.502 180.653C217.857 180.963 218.329 181.118 218.917 181.118ZM215.8 179.409C215.8 178.817 215.957 178.293 216.271 177.837C216.59 177.381 217.16 176.921 217.98 176.456C217.593 176.023 217.329 175.695 217.188 175.472C217.051 175.248 216.941 175.016 216.859 174.774C216.777 174.533 216.736 174.282 216.736 174.022C216.736 173.339 216.96 172.806 217.406 172.423C217.853 172.04 218.475 171.849 219.272 171.849C220.011 171.849 220.592 172.04 221.016 172.423C221.439 172.801 221.651 173.33 221.651 174.009C221.651 174.496 221.496 174.948 221.187 175.362C220.877 175.772 220.364 176.189 219.648 176.613L222.431 179.286C222.686 179.004 222.889 178.673 223.039 178.295C223.194 177.912 223.324 177.495 223.429 177.044H224.577C224.267 178.347 223.8 179.336 223.176 180.011L225.22 182H223.654L222.39 180.783C221.852 181.266 221.305 181.613 220.749 181.822C220.193 182.032 219.573 182.137 218.89 182.137C217.91 182.137 217.149 181.895 216.606 181.412C216.069 180.929 215.8 180.261 215.8 179.409ZM238.242 176.907C238.242 178.557 237.793 179.819 236.896 180.694C236.002 181.565 234.715 182 233.033 182H230.265V172.006H233.327C234.881 172.006 236.089 172.437 236.95 173.298C237.812 174.159 238.242 175.362 238.242 176.907ZM237.012 176.948C237.012 175.645 236.684 174.663 236.027 174.002C235.376 173.341 234.405 173.011 233.115 173.011H231.427V180.995H232.842C234.227 180.995 235.269 180.656 235.966 179.977C236.663 179.293 237.012 178.284 237.012 176.948ZM243.725 174.371C244.057 174.371 244.356 174.398 244.62 174.453L244.463 175.506C244.153 175.438 243.88 175.403 243.643 175.403C243.036 175.403 242.517 175.649 242.084 176.142C241.656 176.634 241.441 177.247 241.441 177.98V182H240.307V174.508H241.243L241.373 175.896H241.428C241.706 175.408 242.041 175.032 242.433 174.768C242.825 174.503 243.255 174.371 243.725 174.371ZM252.488 178.247C252.488 179.468 252.181 180.423 251.565 181.111C250.95 181.795 250.1 182.137 249.016 182.137C248.346 182.137 247.751 181.979 247.231 181.665C246.712 181.351 246.311 180.899 246.028 180.312C245.746 179.724 245.604 179.035 245.604 178.247C245.604 177.026 245.91 176.076 246.521 175.396C247.131 174.713 247.979 174.371 249.063 174.371C250.112 174.371 250.943 174.72 251.559 175.417C252.178 176.114 252.488 177.058 252.488 178.247ZM246.78 178.247C246.78 179.204 246.972 179.933 247.354 180.435C247.737 180.936 248.3 181.187 249.043 181.187C249.786 181.187 250.349 180.938 250.731 180.441C251.119 179.94 251.312 179.209 251.312 178.247C251.312 177.295 251.119 176.572 250.731 176.08C250.349 175.583 249.781 175.335 249.029 175.335C248.286 175.335 247.726 175.579 247.348 176.066C246.969 176.554 246.78 177.281 246.78 178.247ZM257.971 182.137C257.483 182.137 257.036 182.048 256.631 181.87C256.23 181.688 255.893 181.41 255.619 181.036H255.537C255.592 181.474 255.619 181.888 255.619 182.28V185.363H254.484V174.508H255.407L255.564 175.533H255.619C255.911 175.123 256.25 174.827 256.638 174.645C257.025 174.462 257.469 174.371 257.971 174.371C258.964 174.371 259.73 174.711 260.268 175.39C260.81 176.069 261.081 177.021 261.081 178.247C261.081 179.478 260.805 180.435 260.254 181.118C259.707 181.797 258.946 182.137 257.971 182.137ZM257.807 175.335C257.041 175.335 256.487 175.547 256.146 175.971C255.804 176.395 255.628 177.069 255.619 177.994V178.247C255.619 179.3 255.795 180.054 256.146 180.51C256.496 180.961 257.059 181.187 257.834 181.187C258.481 181.187 258.987 180.924 259.352 180.4C259.721 179.876 259.905 179.154 259.905 178.233C259.905 177.299 259.721 176.584 259.352 176.087C258.987 175.586 258.472 175.335 257.807 175.335ZM267.773 174.508V179.368C267.773 179.979 267.912 180.435 268.19 180.735C268.468 181.036 268.904 181.187 269.496 181.187C270.28 181.187 270.852 180.972 271.212 180.544C271.576 180.116 271.759 179.416 271.759 178.445V174.508H272.894V182H271.957L271.793 180.995H271.731C271.499 181.364 271.175 181.647 270.761 181.843C270.351 182.039 269.881 182.137 269.353 182.137C268.441 182.137 267.757 181.92 267.302 181.487C266.851 181.054 266.625 180.362 266.625 179.409V174.508H267.773ZM280.434 182V177.153C280.434 176.543 280.295 176.087 280.017 175.786C279.739 175.485 279.303 175.335 278.711 175.335C277.927 175.335 277.353 175.547 276.988 175.971C276.624 176.395 276.441 177.094 276.441 178.069V182H275.307V174.508H276.229L276.414 175.533H276.469C276.701 175.164 277.027 174.879 277.446 174.679C277.866 174.474 278.333 174.371 278.848 174.371C279.75 174.371 280.429 174.59 280.885 175.027C281.34 175.46 281.568 176.155 281.568 177.112V182H280.434ZM286.326 181.2C286.527 181.2 286.72 181.187 286.907 181.159C287.094 181.127 287.242 181.095 287.352 181.063V181.932C287.229 181.991 287.046 182.039 286.805 182.075C286.568 182.116 286.354 182.137 286.162 182.137C284.713 182.137 283.988 181.373 283.988 179.847V175.39H282.915V174.843L283.988 174.371L284.467 172.771H285.123V174.508H287.297V175.39H285.123V179.799C285.123 180.25 285.23 180.596 285.444 180.838C285.659 181.079 285.952 181.2 286.326 181.2ZM289.922 174.508V179.368C289.922 179.979 290.061 180.435 290.339 180.735C290.617 181.036 291.052 181.187 291.645 181.187C292.428 181.187 293 180.972 293.36 180.544C293.725 180.116 293.907 179.416 293.907 178.445V174.508H295.042V182H294.105L293.941 180.995H293.88C293.647 181.364 293.324 181.647 292.909 181.843C292.499 182.039 292.03 182.137 291.501 182.137C290.59 182.137 289.906 181.92 289.45 181.487C288.999 181.054 288.773 180.362 288.773 179.409V174.508H289.922ZM298.576 178.165C298.772 177.887 299.071 177.522 299.472 177.071L301.892 174.508H303.238L300.203 177.7L303.45 182H302.076L299.431 178.459L298.576 179.197V182H297.455V171.363H298.576V177.003C298.576 177.254 298.558 177.641 298.521 178.165H298.576ZM316.165 172.006V178.473C316.165 179.612 315.821 180.507 315.133 181.159C314.445 181.811 313.499 182.137 312.296 182.137C311.093 182.137 310.161 181.809 309.5 181.152C308.844 180.496 308.516 179.594 308.516 178.445V172.006H309.678V178.527C309.678 179.361 309.906 180.002 310.361 180.448C310.817 180.895 311.487 181.118 312.371 181.118C313.214 181.118 313.864 180.895 314.319 180.448C314.775 179.997 315.003 179.352 315.003 178.514V172.006H316.165ZM322.133 182.137C321.645 182.137 321.199 182.048 320.793 181.87C320.392 181.688 320.055 181.41 319.781 181.036H319.699C319.754 181.474 319.781 181.888 319.781 182.28V185.363H318.646V174.508H319.569L319.727 175.533H319.781C320.073 175.123 320.412 174.827 320.8 174.645C321.187 174.462 321.632 174.371 322.133 174.371C323.126 174.371 323.892 174.711 324.43 175.39C324.972 176.069 325.243 177.021 325.243 178.247C325.243 179.478 324.967 180.435 324.416 181.118C323.869 181.797 323.108 182.137 322.133 182.137ZM321.969 175.335C321.203 175.335 320.649 175.547 320.308 175.971C319.966 176.395 319.79 177.069 319.781 177.994V178.247C319.781 179.3 319.957 180.054 320.308 180.51C320.659 180.961 321.221 181.187 321.996 181.187C322.643 181.187 323.149 180.924 323.514 180.4C323.883 179.876 324.067 179.154 324.067 178.233C324.067 177.299 323.883 176.584 323.514 176.087C323.149 175.586 322.634 175.335 321.969 175.335ZM328.367 182H327.232V171.363H328.367V182ZM337.24 178.247C337.24 179.468 336.933 180.423 336.317 181.111C335.702 181.795 334.852 182.137 333.768 182.137C333.098 182.137 332.503 181.979 331.983 181.665C331.464 181.351 331.063 180.899 330.78 180.312C330.498 179.724 330.356 179.035 330.356 178.247C330.356 177.026 330.662 176.076 331.272 175.396C331.883 174.713 332.731 174.371 333.815 174.371C334.864 174.371 335.695 174.72 336.311 175.417C336.93 176.114 337.24 177.058 337.24 178.247ZM331.532 178.247C331.532 179.204 331.724 179.933 332.106 180.435C332.489 180.936 333.052 181.187 333.795 181.187C334.538 181.187 335.101 180.938 335.483 180.441C335.871 179.94 336.064 179.209 336.064 178.247C336.064 177.295 335.871 176.572 335.483 176.08C335.101 175.583 334.533 175.335 333.781 175.335C333.038 175.335 332.478 175.579 332.1 176.066C331.721 176.554 331.532 177.281 331.532 178.247ZM343.844 182L343.618 180.934H343.563C343.19 181.403 342.816 181.722 342.442 181.891C342.073 182.055 341.611 182.137 341.055 182.137C340.312 182.137 339.729 181.945 339.305 181.562C338.885 181.18 338.676 180.635 338.676 179.929C338.676 178.416 339.886 177.623 342.306 177.55L343.577 177.509V177.044C343.577 176.456 343.45 176.023 343.194 175.745C342.944 175.463 342.54 175.321 341.984 175.321C341.36 175.321 340.654 175.513 339.865 175.896L339.517 175.027C339.886 174.827 340.289 174.67 340.727 174.556C341.169 174.442 341.611 174.385 342.053 174.385C342.946 174.385 343.607 174.583 344.035 174.979C344.468 175.376 344.685 176.012 344.685 176.887V182H343.844ZM341.28 181.2C341.987 181.2 342.54 181.007 342.941 180.619C343.347 180.232 343.55 179.689 343.55 178.992V178.315L342.415 178.363C341.513 178.395 340.861 178.536 340.46 178.787C340.063 179.033 339.865 179.418 339.865 179.942C339.865 180.353 339.988 180.665 340.234 180.879C340.485 181.093 340.834 181.2 341.28 181.2ZM352.129 180.995H352.067C351.543 181.756 350.759 182.137 349.716 182.137C348.736 182.137 347.973 181.802 347.426 181.132C346.883 180.462 346.612 179.509 346.612 178.274C346.612 177.039 346.886 176.08 347.433 175.396C347.979 174.713 348.741 174.371 349.716 174.371C350.732 174.371 351.511 174.74 352.054 175.479H352.143L352.095 174.938L352.067 174.412V171.363H353.202V182H352.279L352.129 180.995ZM349.859 181.187C350.634 181.187 351.195 180.977 351.541 180.558C351.892 180.134 352.067 179.452 352.067 178.514V178.274C352.067 177.213 351.89 176.456 351.534 176.005C351.183 175.549 350.62 175.321 349.846 175.321C349.18 175.321 348.67 175.581 348.314 176.101C347.964 176.616 347.788 177.345 347.788 178.288C347.788 179.245 347.964 179.967 348.314 180.455C348.665 180.943 349.18 181.187 349.859 181.187ZM363.818 176.764H367.216V181.624C366.687 181.793 366.149 181.92 365.603 182.007C365.056 182.093 364.422 182.137 363.702 182.137C362.189 182.137 361.011 181.688 360.168 180.79C359.325 179.888 358.903 178.625 358.903 177.003C358.903 175.964 359.111 175.055 359.525 174.275C359.945 173.492 360.546 172.895 361.33 172.484C362.114 172.07 363.032 171.862 364.085 171.862C365.151 171.862 366.145 172.058 367.065 172.45L366.614 173.476C365.712 173.093 364.844 172.901 364.01 172.901C362.793 172.901 361.843 173.264 361.159 173.988C360.476 174.713 360.134 175.718 360.134 177.003C360.134 178.352 360.462 179.375 361.118 180.072C361.779 180.77 362.747 181.118 364.023 181.118C364.716 181.118 365.393 181.038 366.054 180.879V177.803H363.818V176.764ZM374.059 182L373.833 180.934H373.778C373.405 181.403 373.031 181.722 372.657 181.891C372.288 182.055 371.826 182.137 371.27 182.137C370.527 182.137 369.943 181.945 369.52 181.562C369.1 181.18 368.891 180.635 368.891 179.929C368.891 178.416 370.101 177.623 372.521 177.55L373.792 177.509V177.044C373.792 176.456 373.664 176.023 373.409 175.745C373.159 175.463 372.755 175.321 372.199 175.321C371.575 175.321 370.868 175.513 370.08 175.896L369.731 175.027C370.101 174.827 370.504 174.67 370.941 174.556C371.383 174.442 371.826 174.385 372.268 174.385C373.161 174.385 373.822 174.583 374.25 174.979C374.683 175.376 374.899 176.012 374.899 176.887V182H374.059ZM371.495 181.2C372.201 181.2 372.755 181.007 373.156 180.619C373.562 180.232 373.765 179.689 373.765 178.992V178.315L372.63 178.363C371.728 178.395 371.076 178.536 370.675 178.787C370.278 179.033 370.08 179.418 370.08 179.942C370.08 180.353 370.203 180.665 370.449 180.879C370.7 181.093 371.049 181.2 371.495 181.2ZM386.794 182V177.126C386.794 176.529 386.666 176.082 386.411 175.786C386.156 175.485 385.759 175.335 385.222 175.335C384.515 175.335 383.993 175.538 383.656 175.943C383.319 176.349 383.15 176.973 383.15 177.816V182H382.016V177.126C382.016 176.529 381.888 176.082 381.633 175.786C381.378 175.485 380.979 175.335 380.437 175.335C379.726 175.335 379.204 175.549 378.871 175.978C378.543 176.401 378.379 177.099 378.379 178.069V182H377.244V174.508H378.167L378.352 175.533H378.406C378.62 175.169 378.921 174.884 379.309 174.679C379.701 174.474 380.138 174.371 380.621 174.371C381.792 174.371 382.558 174.795 382.918 175.643H382.973C383.196 175.251 383.52 174.941 383.943 174.713C384.367 174.485 384.85 174.371 385.393 174.371C386.24 174.371 386.874 174.59 387.293 175.027C387.717 175.46 387.929 176.155 387.929 177.112V182H386.794ZM393.76 174.385C394.744 174.385 395.507 174.722 396.05 175.396C396.597 176.066 396.87 177.017 396.87 178.247C396.87 179.478 396.594 180.435 396.043 181.118C395.496 181.797 394.735 182.137 393.76 182.137C393.272 182.137 392.826 182.048 392.42 181.87C392.019 181.688 391.682 181.41 391.408 181.036H391.326L391.087 182H390.273V171.363H391.408V173.947C391.408 174.526 391.39 175.046 391.354 175.506H391.408C391.937 174.758 392.721 174.385 393.76 174.385ZM393.596 175.335C392.821 175.335 392.263 175.558 391.921 176.005C391.579 176.447 391.408 177.194 391.408 178.247C391.408 179.3 391.584 180.054 391.935 180.51C392.285 180.961 392.848 181.187 393.623 181.187C394.32 181.187 394.84 180.934 395.182 180.428C395.523 179.917 395.694 179.186 395.694 178.233C395.694 177.258 395.523 176.531 395.182 176.053C394.84 175.574 394.311 175.335 393.596 175.335ZM403.467 182L403.241 180.934H403.187C402.813 181.403 402.439 181.722 402.065 181.891C401.696 182.055 401.234 182.137 400.678 182.137C399.935 182.137 399.352 181.945 398.928 181.562C398.508 181.18 398.299 180.635 398.299 179.929C398.299 178.416 399.509 177.623 401.929 177.55L403.2 177.509V177.044C403.2 176.456 403.073 176.023 402.817 175.745C402.567 175.463 402.163 175.321 401.607 175.321C400.983 175.321 400.277 175.513 399.488 175.896L399.14 175.027C399.509 174.827 399.912 174.67 400.35 174.556C400.792 174.442 401.234 174.385 401.676 174.385C402.569 174.385 403.23 174.583 403.658 174.979C404.091 175.376 404.308 176.012 404.308 176.887V182H403.467ZM400.903 181.2C401.61 181.2 402.163 181.007 402.564 180.619C402.97 180.232 403.173 179.689 403.173 178.992V178.315L402.038 178.363C401.136 178.395 400.484 178.536 400.083 178.787C399.687 179.033 399.488 179.418 399.488 179.942C399.488 180.353 399.611 180.665 399.857 180.879C400.108 181.093 400.457 181.2 400.903 181.2ZM410.07 174.371C410.403 174.371 410.701 174.398 410.966 174.453L410.809 175.506C410.499 175.438 410.225 175.403 409.988 175.403C409.382 175.403 408.863 175.649 408.43 176.142C408.001 176.634 407.787 177.247 407.787 177.98V182H406.652V174.508H407.589L407.719 175.896H407.773C408.051 175.408 408.386 175.032 408.778 174.768C409.17 174.503 409.601 174.371 410.07 174.371ZM422.457 182L421.213 178.821H417.207L415.977 182H414.801L418.752 171.965H419.729L423.66 182H422.457ZM420.851 177.775L419.688 174.679C419.538 174.287 419.383 173.806 419.224 173.236C419.123 173.674 418.98 174.155 418.793 174.679L417.617 177.775H420.851ZM428.35 182.137C427.862 182.137 427.415 182.048 427.01 181.87C426.609 181.688 426.271 181.41 425.998 181.036H425.916C425.971 181.474 425.998 181.888 425.998 182.28V185.363H424.863V174.508H425.786L425.943 175.533H425.998C426.29 175.123 426.629 174.827 427.017 174.645C427.404 174.462 427.848 174.371 428.35 174.371C429.343 174.371 430.109 174.711 430.646 175.39C431.189 176.069 431.46 177.021 431.46 178.247C431.46 179.478 431.184 180.435 430.633 181.118C430.086 181.797 429.325 182.137 428.35 182.137ZM428.186 175.335C427.42 175.335 426.866 175.547 426.524 175.971C426.183 176.395 426.007 177.069 425.998 177.994V178.247C425.998 179.3 426.174 180.054 426.524 180.51C426.875 180.961 427.438 181.187 428.213 181.187C428.86 181.187 429.366 180.924 429.73 180.4C430.1 179.876 430.284 179.154 430.284 178.233C430.284 177.299 430.1 176.584 429.73 176.087C429.366 175.586 428.851 175.335 428.186 175.335ZM434.584 182H433.449V171.363H434.584V182ZM438.125 182H436.99V174.508H438.125V182ZM436.895 172.478C436.895 172.218 436.958 172.029 437.086 171.91C437.214 171.787 437.373 171.726 437.564 171.726C437.747 171.726 437.904 171.787 438.036 171.91C438.168 172.033 438.234 172.222 438.234 172.478C438.234 172.733 438.168 172.924 438.036 173.052C437.904 173.175 437.747 173.236 437.564 173.236C437.373 173.236 437.214 173.175 437.086 173.052C436.958 172.924 436.895 172.733 436.895 172.478ZM441.652 178.165C441.848 177.887 442.147 177.522 442.548 177.071L444.968 174.508H446.314L443.279 177.7L446.526 182H445.152L442.507 178.459L441.652 179.197V182H440.531V171.363H441.652V177.003C441.652 177.254 441.634 177.641 441.598 178.165H441.652ZM452.494 182L452.269 180.934H452.214C451.84 181.403 451.466 181.722 451.093 181.891C450.724 182.055 450.261 182.137 449.705 182.137C448.962 182.137 448.379 181.945 447.955 181.562C447.536 181.18 447.326 180.635 447.326 179.929C447.326 178.416 448.536 177.623 450.956 177.55L452.228 177.509V177.044C452.228 176.456 452.1 176.023 451.845 175.745C451.594 175.463 451.191 175.321 450.635 175.321C450.01 175.321 449.304 175.513 448.516 175.896L448.167 175.027C448.536 174.827 448.939 174.67 449.377 174.556C449.819 174.442 450.261 174.385 450.703 174.385C451.596 174.385 452.257 174.583 452.686 174.979C453.118 175.376 453.335 176.012 453.335 176.887V182H452.494ZM449.931 181.2C450.637 181.2 451.191 181.007 451.592 180.619C451.997 180.232 452.2 179.689 452.2 178.992V178.315L451.065 178.363C450.163 178.395 449.511 178.536 449.11 178.787C448.714 179.033 448.516 179.418 448.516 179.942C448.516 180.353 448.639 180.665 448.885 180.879C449.135 181.093 449.484 181.2 449.931 181.2ZM460.513 179.956C460.513 180.653 460.253 181.191 459.733 181.569C459.214 181.948 458.485 182.137 457.546 182.137C456.552 182.137 455.778 181.979 455.222 181.665V180.612C455.582 180.795 455.967 180.938 456.377 181.043C456.792 181.148 457.19 181.2 457.573 181.2C458.166 181.2 458.621 181.107 458.94 180.92C459.259 180.729 459.419 180.439 459.419 180.052C459.419 179.76 459.291 179.512 459.036 179.307C458.785 179.097 458.293 178.851 457.56 178.568C456.862 178.309 456.366 178.083 456.069 177.892C455.778 177.696 455.559 177.475 455.413 177.229C455.272 176.982 455.201 176.688 455.201 176.347C455.201 175.736 455.45 175.255 455.946 174.904C456.443 174.549 457.124 174.371 457.99 174.371C458.797 174.371 459.585 174.535 460.355 174.863L459.952 175.786C459.2 175.476 458.519 175.321 457.908 175.321C457.37 175.321 456.965 175.406 456.691 175.574C456.418 175.743 456.281 175.975 456.281 176.271C456.281 176.472 456.331 176.643 456.432 176.784C456.536 176.925 456.703 177.06 456.931 177.188C457.159 177.315 457.596 177.5 458.243 177.741C459.132 178.065 459.731 178.391 460.041 178.719C460.355 179.047 460.513 179.459 460.513 179.956ZM463.5 182H462.365V174.508H463.5V182ZM462.27 172.478C462.27 172.218 462.333 172.029 462.461 171.91C462.589 171.787 462.748 171.726 462.939 171.726C463.122 171.726 463.279 171.787 463.411 171.91C463.543 172.033 463.609 172.222 463.609 172.478C463.609 172.733 463.543 172.924 463.411 173.052C463.279 173.175 463.122 173.236 462.939 173.236C462.748 173.236 462.589 173.175 462.461 173.052C462.333 172.924 462.27 172.733 462.27 172.478ZM474.137 182L470.746 173.141H470.691C470.755 173.842 470.787 174.676 470.787 175.643V182H469.714V172.006H471.464L474.629 180.25H474.684L477.876 172.006H479.612V182H478.45V175.561C478.45 174.822 478.482 174.02 478.546 173.154H478.491L475.073 182H474.137ZM488.656 178.247C488.656 179.468 488.349 180.423 487.733 181.111C487.118 181.795 486.268 182.137 485.184 182.137C484.514 182.137 483.919 181.979 483.399 181.665C482.88 181.351 482.479 180.899 482.196 180.312C481.914 179.724 481.772 179.035 481.772 178.247C481.772 177.026 482.078 176.076 482.688 175.396C483.299 174.713 484.147 174.371 485.231 174.371C486.28 174.371 487.111 174.72 487.727 175.417C488.346 176.114 488.656 177.058 488.656 178.247ZM482.948 178.247C482.948 179.204 483.14 179.933 483.522 180.435C483.905 180.936 484.468 181.187 485.211 181.187C485.954 181.187 486.517 180.938 486.899 180.441C487.287 179.94 487.48 179.209 487.48 178.247C487.48 177.295 487.287 176.572 486.899 176.08C486.517 175.583 485.949 175.335 485.197 175.335C484.454 175.335 483.894 175.579 483.516 176.066C483.137 176.554 482.948 177.281 482.948 178.247ZM494.139 174.385C495.123 174.385 495.886 174.722 496.429 175.396C496.976 176.066 497.249 177.017 497.249 178.247C497.249 179.478 496.973 180.435 496.422 181.118C495.875 181.797 495.114 182.137 494.139 182.137C493.651 182.137 493.204 182.048 492.799 181.87C492.398 181.688 492.061 181.41 491.787 181.036H491.705L491.466 182H490.652V171.363H491.787V173.947C491.787 174.526 491.769 175.046 491.732 175.506H491.787C492.316 174.758 493.1 174.385 494.139 174.385ZM493.975 175.335C493.2 175.335 492.642 175.558 492.3 176.005C491.958 176.447 491.787 177.194 491.787 178.247C491.787 179.3 491.963 180.054 492.313 180.51C492.664 180.961 493.227 181.187 494.002 181.187C494.699 181.187 495.219 180.934 495.561 180.428C495.902 179.917 496.073 179.186 496.073 178.233C496.073 177.258 495.902 176.531 495.561 176.053C495.219 175.574 494.69 175.335 493.975 175.335ZM500.373 182H499.238V174.508H500.373V182ZM499.143 172.478C499.143 172.218 499.206 172.029 499.334 171.91C499.462 171.787 499.621 171.726 499.812 171.726C499.995 171.726 500.152 171.787 500.284 171.91C500.416 172.033 500.482 172.222 500.482 172.478C500.482 172.733 500.416 172.924 500.284 173.052C500.152 173.175 499.995 173.236 499.812 173.236C499.621 173.236 499.462 173.175 499.334 173.052C499.206 172.924 499.143 172.733 499.143 172.478ZM503.914 182H502.779V171.363H503.914V182ZM509.485 182.137C508.378 182.137 507.503 181.799 506.86 181.125C506.222 180.451 505.903 179.514 505.903 178.315C505.903 177.108 506.2 176.148 506.792 175.438C507.389 174.727 508.189 174.371 509.191 174.371C510.13 174.371 510.873 174.681 511.42 175.301C511.967 175.916 512.24 176.729 512.24 177.741V178.459H507.079C507.102 179.339 507.323 180.006 507.742 180.462C508.166 180.918 508.761 181.146 509.526 181.146C510.333 181.146 511.131 180.977 511.919 180.64V181.651C511.518 181.825 511.137 181.948 510.777 182.021C510.422 182.098 509.991 182.137 509.485 182.137ZM509.178 175.321C508.576 175.321 508.095 175.517 507.735 175.909C507.38 176.301 507.17 176.843 507.106 177.536H511.023C511.023 176.821 510.864 176.274 510.545 175.896C510.226 175.513 509.77 175.321 509.178 175.321Z" fill="#1F2A36"/>
<path d="M214.562 211L213.496 208.275H210.062L209.008 211H208L211.387 202.398H212.225L215.594 211H214.562ZM213.186 207.379L212.189 204.725C212.061 204.389 211.928 203.977 211.791 203.488C211.705 203.863 211.582 204.275 211.422 204.725L210.414 207.379H213.186ZM218.699 210.314C218.871 210.314 219.037 210.303 219.197 210.279C219.357 210.252 219.484 210.225 219.578 210.197V210.941C219.473 210.992 219.316 211.033 219.109 211.064C218.906 211.1 218.723 211.117 218.559 211.117C217.316 211.117 216.695 210.463 216.695 209.154V205.334H215.775V204.865L216.695 204.461L217.105 203.09H217.668V204.578H219.531V205.334H217.668V209.113C217.668 209.5 217.76 209.797 217.943 210.004C218.127 210.211 218.379 210.314 218.699 210.314ZM224.816 211L224.623 210.086H224.576C224.256 210.488 223.936 210.762 223.615 210.906C223.299 211.047 222.902 211.117 222.426 211.117C221.789 211.117 221.289 210.953 220.926 210.625C220.566 210.297 220.387 209.83 220.387 209.225C220.387 207.928 221.424 207.248 223.498 207.186L224.588 207.15V206.752C224.588 206.248 224.479 205.877 224.26 205.639C224.045 205.396 223.699 205.275 223.223 205.275C222.688 205.275 222.082 205.439 221.406 205.768L221.107 205.023C221.424 204.852 221.77 204.717 222.145 204.619C222.523 204.521 222.902 204.473 223.281 204.473C224.047 204.473 224.613 204.643 224.98 204.982C225.352 205.322 225.537 205.867 225.537 206.617V211H224.816ZM222.619 210.314C223.225 210.314 223.699 210.148 224.043 209.816C224.391 209.484 224.564 209.02 224.564 208.422V207.842L223.592 207.883C222.818 207.91 222.26 208.031 221.916 208.246C221.576 208.457 221.406 208.787 221.406 209.236C221.406 209.588 221.512 209.855 221.723 210.039C221.938 210.223 222.236 210.314 222.619 210.314ZM228.461 204.578V208.744C228.461 209.268 228.58 209.658 228.818 209.916C229.057 210.174 229.43 210.303 229.938 210.303C230.609 210.303 231.1 210.119 231.408 209.752C231.721 209.385 231.877 208.785 231.877 207.953V204.578H232.85V211H232.047L231.906 210.139H231.854C231.654 210.455 231.377 210.697 231.021 210.865C230.67 211.033 230.268 211.117 229.814 211.117C229.033 211.117 228.447 210.932 228.057 210.561C227.67 210.189 227.477 209.596 227.477 208.779V204.578H228.461ZM240.602 211.117C239.672 211.117 238.951 210.832 238.439 210.262C237.932 209.688 237.678 208.877 237.678 207.83C237.678 206.756 237.936 205.926 238.451 205.34C238.971 204.754 239.709 204.461 240.666 204.461C240.975 204.461 241.283 204.494 241.592 204.561C241.9 204.627 242.143 204.705 242.318 204.795L242.02 205.621C241.805 205.535 241.57 205.465 241.316 205.41C241.062 205.352 240.838 205.322 240.643 205.322C239.338 205.322 238.686 206.154 238.686 207.818C238.686 208.607 238.844 209.213 239.16 209.635C239.48 210.057 239.953 210.268 240.578 210.268C241.113 210.268 241.662 210.152 242.225 209.922V210.783C241.795 211.006 241.254 211.117 240.602 211.117ZM247.703 211L247.51 210.086H247.463C247.143 210.488 246.822 210.762 246.502 210.906C246.186 211.047 245.789 211.117 245.312 211.117C244.676 211.117 244.176 210.953 243.812 210.625C243.453 210.297 243.273 209.83 243.273 209.225C243.273 207.928 244.311 207.248 246.385 207.186L247.475 207.15V206.752C247.475 206.248 247.365 205.877 247.146 205.639C246.932 205.396 246.586 205.275 246.109 205.275C245.574 205.275 244.969 205.439 244.293 205.768L243.994 205.023C244.311 204.852 244.656 204.717 245.031 204.619C245.41 204.521 245.789 204.473 246.168 204.473C246.934 204.473 247.5 204.643 247.867 204.982C248.238 205.322 248.424 205.867 248.424 206.617V211H247.703ZM245.506 210.314C246.111 210.314 246.586 210.148 246.93 209.816C247.277 209.484 247.451 209.02 247.451 208.422V207.842L246.479 207.883C245.705 207.91 245.146 208.031 244.803 208.246C244.463 208.457 244.293 208.787 244.293 209.236C244.293 209.588 244.398 209.855 244.609 210.039C244.824 210.223 245.123 210.314 245.506 210.314ZM253.363 204.461C253.648 204.461 253.904 204.484 254.131 204.531L253.996 205.434C253.73 205.375 253.496 205.346 253.293 205.346C252.773 205.346 252.328 205.557 251.957 205.979C251.59 206.4 251.406 206.926 251.406 207.555V211H250.434V204.578H251.236L251.348 205.768H251.395C251.633 205.35 251.92 205.027 252.256 204.801C252.592 204.574 252.961 204.461 253.363 204.461ZM256.305 211H255.332V204.578H256.305V211ZM255.25 202.838C255.25 202.615 255.305 202.453 255.414 202.352C255.523 202.246 255.66 202.193 255.824 202.193C255.98 202.193 256.115 202.246 256.229 202.352C256.342 202.457 256.398 202.619 256.398 202.838C256.398 203.057 256.342 203.221 256.229 203.33C256.115 203.436 255.98 203.488 255.824 203.488C255.66 203.488 255.523 203.436 255.414 203.33C255.305 203.221 255.25 203.057 255.25 202.838ZM262.398 204.578V208.744C262.398 209.268 262.518 209.658 262.756 209.916C262.994 210.174 263.367 210.303 263.875 210.303C264.547 210.303 265.037 210.119 265.346 209.752C265.658 209.385 265.814 208.785 265.814 207.953V204.578H266.787V211H265.984L265.844 210.139H265.791C265.592 210.455 265.314 210.697 264.959 210.865C264.607 211.033 264.205 211.117 263.752 211.117C262.971 211.117 262.385 210.932 261.994 210.561C261.607 210.189 261.414 209.596 261.414 208.779V204.578H262.398ZM273.25 211V206.846C273.25 206.322 273.131 205.932 272.893 205.674C272.654 205.416 272.281 205.287 271.773 205.287C271.102 205.287 270.609 205.469 270.297 205.832C269.984 206.195 269.828 206.795 269.828 207.631V211H268.855V204.578H269.646L269.805 205.457H269.852C270.051 205.141 270.33 204.896 270.689 204.725C271.049 204.549 271.449 204.461 271.891 204.461C272.664 204.461 273.246 204.648 273.637 205.023C274.027 205.395 274.223 205.99 274.223 206.811V211H273.25ZM278.301 210.314C278.473 210.314 278.639 210.303 278.799 210.279C278.959 210.252 279.086 210.225 279.18 210.197V210.941C279.074 210.992 278.918 211.033 278.711 211.064C278.508 211.1 278.324 211.117 278.16 211.117C276.918 211.117 276.297 210.463 276.297 209.154V205.334H275.377V204.865L276.297 204.461L276.707 203.09H277.27V204.578H279.133V205.334H277.27V209.113C277.27 209.5 277.361 209.797 277.545 210.004C277.729 210.211 277.98 210.314 278.301 210.314ZM281.383 204.578V208.744C281.383 209.268 281.502 209.658 281.74 209.916C281.979 210.174 282.352 210.303 282.859 210.303C283.531 210.303 284.021 210.119 284.33 209.752C284.643 209.385 284.799 208.785 284.799 207.953V204.578H285.771V211H284.969L284.828 210.139H284.775C284.576 210.455 284.299 210.697 283.943 210.865C283.592 211.033 283.189 211.117 282.736 211.117C281.955 211.117 281.369 210.932 280.979 210.561C280.592 210.189 280.398 209.596 280.398 208.779V204.578H281.383ZM288.801 207.713C288.969 207.475 289.225 207.162 289.568 206.775L291.643 204.578H292.797L290.195 207.314L292.979 211H291.801L289.533 207.965L288.801 208.598V211H287.84V201.883H288.801V206.717C288.801 206.932 288.785 207.264 288.754 207.713H288.801ZM305.447 211V206.822C305.447 206.311 305.338 205.928 305.119 205.674C304.9 205.416 304.561 205.287 304.1 205.287C303.494 205.287 303.047 205.461 302.758 205.809C302.469 206.156 302.324 206.691 302.324 207.414V211H301.352V206.822C301.352 206.311 301.242 205.928 301.023 205.674C300.805 205.416 300.463 205.287 299.998 205.287C299.389 205.287 298.941 205.471 298.656 205.838C298.375 206.201 298.234 206.799 298.234 207.631V211H297.262V204.578H298.053L298.211 205.457H298.258C298.441 205.145 298.699 204.9 299.031 204.725C299.367 204.549 299.742 204.461 300.156 204.461C301.16 204.461 301.816 204.824 302.125 205.551H302.172C302.363 205.215 302.641 204.949 303.004 204.754C303.367 204.559 303.781 204.461 304.246 204.461C304.973 204.461 305.516 204.648 305.875 205.023C306.238 205.395 306.42 205.99 306.42 206.811V211H305.447ZM311.143 211.117C310.193 211.117 309.443 210.828 308.893 210.25C308.346 209.672 308.072 208.869 308.072 207.842C308.072 206.807 308.326 205.984 308.834 205.375C309.346 204.766 310.031 204.461 310.891 204.461C311.695 204.461 312.332 204.727 312.801 205.258C313.27 205.785 313.504 206.482 313.504 207.35V207.965H309.08C309.1 208.719 309.289 209.291 309.648 209.682C310.012 210.072 310.521 210.268 311.178 210.268C311.869 210.268 312.553 210.123 313.229 209.834V210.701C312.885 210.85 312.559 210.955 312.25 211.018C311.945 211.084 311.576 211.117 311.143 211.117ZM310.879 205.275C310.363 205.275 309.951 205.443 309.643 205.779C309.338 206.115 309.158 206.58 309.104 207.174H312.461C312.461 206.561 312.324 206.092 312.051 205.768C311.777 205.439 311.387 205.275 310.879 205.275ZM319.562 211V206.846C319.562 206.322 319.443 205.932 319.205 205.674C318.967 205.416 318.594 205.287 318.086 205.287C317.414 205.287 316.922 205.469 316.609 205.832C316.297 206.195 316.141 206.795 316.141 207.631V211H315.168V204.578H315.959L316.117 205.457H316.164C316.363 205.141 316.643 204.896 317.002 204.725C317.361 204.549 317.762 204.461 318.203 204.461C318.977 204.461 319.559 204.648 319.949 205.023C320.34 205.395 320.535 205.99 320.535 206.811V211H319.562ZM327.795 204.578V205.193L326.605 205.334C326.715 205.471 326.812 205.65 326.898 205.873C326.984 206.092 327.027 206.34 327.027 206.617C327.027 207.246 326.812 207.748 326.383 208.123C325.953 208.498 325.363 208.686 324.613 208.686C324.422 208.686 324.242 208.67 324.074 208.639C323.66 208.857 323.453 209.133 323.453 209.465C323.453 209.641 323.525 209.771 323.67 209.857C323.814 209.939 324.062 209.98 324.414 209.98H325.551C326.246 209.98 326.779 210.127 327.15 210.42C327.525 210.713 327.713 211.139 327.713 211.697C327.713 212.408 327.428 212.949 326.857 213.32C326.287 213.695 325.455 213.883 324.361 213.883C323.521 213.883 322.873 213.727 322.416 213.414C321.963 213.102 321.736 212.66 321.736 212.09C321.736 211.699 321.861 211.361 322.111 211.076C322.361 210.791 322.713 210.598 323.166 210.496C323.002 210.422 322.863 210.307 322.75 210.15C322.641 209.994 322.586 209.812 322.586 209.605C322.586 209.371 322.648 209.166 322.773 208.99C322.898 208.814 323.096 208.645 323.365 208.48C323.033 208.344 322.762 208.111 322.551 207.783C322.344 207.455 322.24 207.08 322.24 206.658C322.24 205.955 322.451 205.414 322.873 205.035C323.295 204.652 323.893 204.461 324.666 204.461C325.002 204.461 325.305 204.5 325.574 204.578H327.795ZM322.674 212.078C322.674 212.426 322.82 212.689 323.113 212.869C323.406 213.049 323.826 213.139 324.373 213.139C325.189 213.139 325.793 213.016 326.184 212.77C326.578 212.527 326.775 212.197 326.775 211.779C326.775 211.432 326.668 211.189 326.453 211.053C326.238 210.92 325.834 210.854 325.24 210.854H324.074C323.633 210.854 323.289 210.959 323.043 211.17C322.797 211.381 322.674 211.684 322.674 212.078ZM323.201 206.635C323.201 207.084 323.328 207.424 323.582 207.654C323.836 207.885 324.189 208 324.643 208C325.592 208 326.066 207.539 326.066 206.617C326.066 205.652 325.586 205.17 324.625 205.17C324.168 205.17 323.816 205.293 323.57 205.539C323.324 205.785 323.201 206.15 323.201 206.635ZM330.027 204.578V208.744C330.027 209.268 330.146 209.658 330.385 209.916C330.623 210.174 330.996 210.303 331.504 210.303C332.176 210.303 332.666 210.119 332.975 209.752C333.287 209.385 333.443 208.785 333.443 207.953V204.578H334.416V211H333.613L333.473 210.139H333.42C333.221 210.455 332.943 210.697 332.588 210.865C332.236 211.033 331.834 211.117 331.381 211.117C330.6 211.117 330.014 210.932 329.623 210.561C329.236 210.189 329.043 209.596 329.043 208.779V204.578H330.027ZM339.473 211.117C339.055 211.117 338.672 211.041 338.324 210.889C337.98 210.732 337.691 210.494 337.457 210.174H337.387C337.434 210.549 337.457 210.904 337.457 211.24V213.883H336.484V204.578H337.275L337.41 205.457H337.457C337.707 205.105 337.998 204.852 338.33 204.695C338.662 204.539 339.043 204.461 339.473 204.461C340.324 204.461 340.98 204.752 341.441 205.334C341.906 205.916 342.139 206.732 342.139 207.783C342.139 208.838 341.902 209.658 341.43 210.244C340.961 210.826 340.309 211.117 339.473 211.117ZM339.332 205.287C338.676 205.287 338.201 205.469 337.908 205.832C337.615 206.195 337.465 206.773 337.457 207.566V207.783C337.457 208.686 337.607 209.332 337.908 209.723C338.209 210.109 338.691 210.303 339.355 210.303C339.91 210.303 340.344 210.078 340.656 209.629C340.973 209.18 341.131 208.561 341.131 207.771C341.131 206.971 340.973 206.357 340.656 205.932C340.344 205.502 339.902 205.287 339.332 205.287ZM344.816 211H343.844V201.883H344.816V211ZM352.422 207.783C352.422 208.83 352.158 209.648 351.631 210.238C351.104 210.824 350.375 211.117 349.445 211.117C348.871 211.117 348.361 210.982 347.916 210.713C347.471 210.443 347.127 210.057 346.885 209.553C346.643 209.049 346.521 208.459 346.521 207.783C346.521 206.736 346.783 205.922 347.307 205.34C347.83 204.754 348.557 204.461 349.486 204.461C350.385 204.461 351.098 204.76 351.625 205.357C352.156 205.955 352.422 206.764 352.422 207.783ZM347.529 207.783C347.529 208.604 347.693 209.229 348.021 209.658C348.35 210.088 348.832 210.303 349.469 210.303C350.105 210.303 350.588 210.09 350.916 209.664C351.248 209.234 351.414 208.607 351.414 207.783C351.414 206.967 351.248 206.348 350.916 205.926C350.588 205.5 350.102 205.287 349.457 205.287C348.82 205.287 348.34 205.496 348.016 205.914C347.691 206.332 347.529 206.955 347.529 207.783ZM358.082 211L357.889 210.086H357.842C357.521 210.488 357.201 210.762 356.881 210.906C356.564 211.047 356.168 211.117 355.691 211.117C355.055 211.117 354.555 210.953 354.191 210.625C353.832 210.297 353.652 209.83 353.652 209.225C353.652 207.928 354.689 207.248 356.764 207.186L357.854 207.15V206.752C357.854 206.248 357.744 205.877 357.525 205.639C357.311 205.396 356.965 205.275 356.488 205.275C355.953 205.275 355.348 205.439 354.672 205.768L354.373 205.023C354.689 204.852 355.035 204.717 355.41 204.619C355.789 204.521 356.168 204.473 356.547 204.473C357.312 204.473 357.879 204.643 358.246 204.982C358.617 205.322 358.803 205.867 358.803 206.617V211H358.082ZM355.885 210.314C356.49 210.314 356.965 210.148 357.309 209.816C357.656 209.484 357.83 209.02 357.83 208.422V207.842L356.857 207.883C356.084 207.91 355.525 208.031 355.182 208.246C354.842 208.457 354.672 208.787 354.672 209.236C354.672 209.588 354.777 209.855 354.988 210.039C355.203 210.223 355.502 210.314 355.885 210.314ZM365.184 210.139H365.131C364.682 210.791 364.01 211.117 363.115 211.117C362.275 211.117 361.621 210.83 361.152 210.256C360.688 209.682 360.455 208.865 360.455 207.807C360.455 206.748 360.689 205.926 361.158 205.34C361.627 204.754 362.279 204.461 363.115 204.461C363.986 204.461 364.654 204.777 365.119 205.41H365.195L365.154 204.947L365.131 204.496V201.883H366.104V211H365.312L365.184 210.139ZM363.238 210.303C363.902 210.303 364.383 210.123 364.68 209.764C364.98 209.4 365.131 208.816 365.131 208.012V207.807C365.131 206.896 364.979 206.248 364.674 205.861C364.373 205.471 363.891 205.275 363.227 205.275C362.656 205.275 362.219 205.498 361.914 205.943C361.613 206.385 361.463 207.01 361.463 207.818C361.463 208.639 361.613 209.258 361.914 209.676C362.215 210.094 362.656 210.303 363.238 210.303ZM374.184 205.334H372.549V211H371.576V205.334H370.428V204.895L371.576 204.543V204.186C371.576 202.607 372.266 201.818 373.645 201.818C373.984 201.818 374.383 201.887 374.84 202.023L374.588 202.803C374.213 202.682 373.893 202.621 373.627 202.621C373.26 202.621 372.988 202.744 372.812 202.99C372.637 203.232 372.549 203.623 372.549 204.162V204.578H374.184V205.334ZM376.328 211H375.355V204.578H376.328V211ZM375.273 202.838C375.273 202.615 375.328 202.453 375.438 202.352C375.547 202.246 375.684 202.193 375.848 202.193C376.004 202.193 376.139 202.246 376.252 202.352C376.365 202.457 376.422 202.619 376.422 202.838C376.422 203.057 376.365 203.221 376.252 203.33C376.139 203.436 376.004 203.488 375.848 203.488C375.684 203.488 375.547 203.436 375.438 203.33C375.328 203.221 375.273 203.057 375.273 202.838ZM379.363 211H378.391V201.883H379.363V211ZM384.139 211.117C383.189 211.117 382.439 210.828 381.889 210.25C381.342 209.672 381.068 208.869 381.068 207.842C381.068 206.807 381.322 205.984 381.83 205.375C382.342 204.766 383.027 204.461 383.887 204.461C384.691 204.461 385.328 204.727 385.797 205.258C386.266 205.785 386.5 206.482 386.5 207.35V207.965H382.076C382.096 208.719 382.285 209.291 382.645 209.682C383.008 210.072 383.518 210.268 384.174 210.268C384.865 210.268 385.549 210.123 386.225 209.834V210.701C385.881 210.85 385.555 210.955 385.246 211.018C384.941 211.084 384.572 211.117 384.139 211.117ZM383.875 205.275C383.359 205.275 382.947 205.443 382.639 205.779C382.334 206.115 382.154 206.58 382.1 207.174H385.457C385.457 206.561 385.32 206.092 385.047 205.768C384.773 205.439 384.383 205.275 383.875 205.275ZM395.652 210.139H395.6C395.15 210.791 394.479 211.117 393.584 211.117C392.744 211.117 392.09 210.83 391.621 210.256C391.156 209.682 390.924 208.865 390.924 207.807C390.924 206.748 391.158 205.926 391.627 205.34C392.096 204.754 392.748 204.461 393.584 204.461C394.455 204.461 395.123 204.777 395.588 205.41H395.664L395.623 204.947L395.6 204.496V201.883H396.572V211H395.781L395.652 210.139ZM393.707 210.303C394.371 210.303 394.852 210.123 395.148 209.764C395.449 209.4 395.6 208.816 395.6 208.012V207.807C395.6 206.896 395.447 206.248 395.143 205.861C394.842 205.471 394.359 205.275 393.695 205.275C393.125 205.275 392.688 205.498 392.383 205.943C392.082 206.385 391.932 207.01 391.932 207.818C391.932 208.639 392.082 209.258 392.383 209.676C392.684 210.094 393.125 210.303 393.707 210.303ZM402.59 211L402.396 210.086H402.35C402.029 210.488 401.709 210.762 401.389 210.906C401.072 211.047 400.676 211.117 400.199 211.117C399.562 211.117 399.062 210.953 398.699 210.625C398.34 210.297 398.16 209.83 398.16 209.225C398.16 207.928 399.197 207.248 401.271 207.186L402.361 207.15V206.752C402.361 206.248 402.252 205.877 402.033 205.639C401.818 205.396 401.473 205.275 400.996 205.275C400.461 205.275 399.855 205.439 399.18 205.768L398.881 205.023C399.197 204.852 399.543 204.717 399.918 204.619C400.297 204.521 400.676 204.473 401.055 204.473C401.82 204.473 402.387 204.643 402.754 204.982C403.125 205.322 403.311 205.867 403.311 206.617V211H402.59ZM400.393 210.314C400.998 210.314 401.473 210.148 401.816 209.816C402.164 209.484 402.338 209.02 402.338 208.422V207.842L401.365 207.883C400.592 207.91 400.033 208.031 399.689 208.246C399.35 208.457 399.18 208.787 399.18 209.236C399.18 209.588 399.285 209.855 399.496 210.039C399.711 210.223 400.01 210.314 400.393 210.314ZM408.25 204.461C408.535 204.461 408.791 204.484 409.018 204.531L408.883 205.434C408.617 205.375 408.383 205.346 408.18 205.346C407.66 205.346 407.215 205.557 406.844 205.979C406.477 206.4 406.293 206.926 406.293 207.555V211H405.32V204.578H406.123L406.234 205.768H406.281C406.52 205.35 406.807 205.027 407.143 204.801C407.479 204.574 407.848 204.461 408.25 204.461ZM411.191 211H410.219V204.578H411.191V211ZM410.137 202.838C410.137 202.615 410.191 202.453 410.301 202.352C410.41 202.246 410.547 202.193 410.711 202.193C410.867 202.193 411.002 202.246 411.115 202.352C411.229 202.457 411.285 202.619 411.285 202.838C411.285 203.057 411.229 203.221 411.115 203.33C411.002 203.436 410.867 203.488 410.711 203.488C410.547 203.488 410.41 203.436 410.301 203.33C410.191 203.221 410.137 203.057 410.137 202.838ZM420.742 210.139H420.689C420.24 210.791 419.568 211.117 418.674 211.117C417.834 211.117 417.18 210.83 416.711 210.256C416.246 209.682 416.014 208.865 416.014 207.807C416.014 206.748 416.248 205.926 416.717 205.34C417.186 204.754 417.838 204.461 418.674 204.461C419.545 204.461 420.213 204.777 420.678 205.41H420.754L420.713 204.947L420.689 204.496V201.883H421.662V211H420.871L420.742 210.139ZM418.797 210.303C419.461 210.303 419.941 210.123 420.238 209.764C420.539 209.4 420.689 208.816 420.689 208.012V207.807C420.689 206.896 420.537 206.248 420.232 205.861C419.932 205.471 419.449 205.275 418.785 205.275C418.215 205.275 417.777 205.498 417.473 205.943C417.172 206.385 417.021 207.01 417.021 207.818C417.021 208.639 417.172 209.258 417.473 209.676C417.773 210.094 418.215 210.303 418.797 210.303ZM424.703 211H423.73V204.578H424.703V211ZM423.648 202.838C423.648 202.615 423.703 202.453 423.812 202.352C423.922 202.246 424.059 202.193 424.223 202.193C424.379 202.193 424.514 202.246 424.627 202.352C424.74 202.457 424.797 202.619 424.797 202.838C424.797 203.057 424.74 203.221 424.627 203.33C424.514 203.436 424.379 203.488 424.223 203.488C424.059 203.488 423.922 203.436 423.812 203.33C423.703 203.221 423.648 203.057 423.648 202.838ZM429.695 204.461C429.98 204.461 430.236 204.484 430.463 204.531L430.328 205.434C430.062 205.375 429.828 205.346 429.625 205.346C429.105 205.346 428.66 205.557 428.289 205.979C427.922 206.4 427.738 206.926 427.738 207.555V211H426.766V204.578H427.568L427.68 205.768H427.727C427.965 205.35 428.252 205.027 428.588 204.801C428.924 204.574 429.293 204.461 429.695 204.461ZM434.377 211.117C433.428 211.117 432.678 210.828 432.127 210.25C431.58 209.672 431.307 208.869 431.307 207.842C431.307 206.807 431.561 205.984 432.068 205.375C432.58 204.766 433.266 204.461 434.125 204.461C434.93 204.461 435.566 204.727 436.035 205.258C436.504 205.785 436.738 206.482 436.738 207.35V207.965H432.314C432.334 208.719 432.523 209.291 432.883 209.682C433.246 210.072 433.756 210.268 434.412 210.268C435.104 210.268 435.787 210.123 436.463 209.834V210.701C436.119 210.85 435.793 210.955 435.484 211.018C435.18 211.084 434.811 211.117 434.377 211.117ZM434.113 205.275C433.598 205.275 433.186 205.443 432.877 205.779C432.572 206.115 432.393 206.58 432.338 207.174H435.695C435.695 206.561 435.559 206.092 435.285 205.768C435.012 205.439 434.621 205.275 434.113 205.275ZM439.363 207.713C439.531 207.475 439.787 207.162 440.131 206.775L442.205 204.578H443.359L440.758 207.314L443.541 211H442.363L440.096 207.965L439.363 208.598V211H438.402V201.883H439.363V206.717C439.363 206.932 439.348 207.264 439.316 207.713H439.363ZM446.781 210.314C446.953 210.314 447.119 210.303 447.279 210.279C447.439 210.252 447.566 210.225 447.66 210.197V210.941C447.555 210.992 447.398 211.033 447.191 211.064C446.988 211.1 446.805 211.117 446.641 211.117C445.398 211.117 444.777 210.463 444.777 209.154V205.334H443.857V204.865L444.777 204.461L445.188 203.09H445.75V204.578H447.613V205.334H445.75V209.113C445.75 209.5 445.842 209.797 446.025 210.004C446.209 210.211 446.461 210.314 446.781 210.314ZM454.492 207.783C454.492 208.83 454.229 209.648 453.701 210.238C453.174 210.824 452.445 211.117 451.516 211.117C450.941 211.117 450.432 210.982 449.986 210.713C449.541 210.443 449.197 210.057 448.955 209.553C448.713 209.049 448.592 208.459 448.592 207.783C448.592 206.736 448.854 205.922 449.377 205.34C449.9 204.754 450.627 204.461 451.557 204.461C452.455 204.461 453.168 204.76 453.695 205.357C454.227 205.955 454.492 206.764 454.492 207.783ZM449.6 207.783C449.6 208.604 449.764 209.229 450.092 209.658C450.42 210.088 450.902 210.303 451.539 210.303C452.176 210.303 452.658 210.09 452.986 209.664C453.318 209.234 453.484 208.607 453.484 207.783C453.484 206.967 453.318 206.348 452.986 205.926C452.658 205.5 452.172 205.287 451.527 205.287C450.891 205.287 450.41 205.496 450.086 205.914C449.762 206.332 449.6 206.955 449.6 207.783ZM459.133 204.461C459.418 204.461 459.674 204.484 459.9 204.531L459.766 205.434C459.5 205.375 459.266 205.346 459.062 205.346C458.543 205.346 458.098 205.557 457.727 205.979C457.359 206.4 457.176 206.926 457.176 207.555V211H456.203V204.578H457.006L457.117 205.768H457.164C457.402 205.35 457.689 205.027 458.025 204.801C458.361 204.574 458.73 204.461 459.133 204.461ZM462.074 211H461.102V204.578H462.074V211ZM461.02 202.838C461.02 202.615 461.074 202.453 461.184 202.352C461.293 202.246 461.43 202.193 461.594 202.193C461.75 202.193 461.885 202.246 461.998 202.352C462.111 202.457 462.168 202.619 462.168 202.838C462.168 203.057 462.111 203.221 461.998 203.33C461.885 203.436 461.75 203.488 461.594 203.488C461.43 203.488 461.293 203.436 461.184 203.33C461.074 203.221 461.02 203.057 461.02 202.838ZM472.322 211V206.822C472.322 206.311 472.213 205.928 471.994 205.674C471.775 205.416 471.436 205.287 470.975 205.287C470.369 205.287 469.922 205.461 469.633 205.809C469.344 206.156 469.199 206.691 469.199 207.414V211H468.227V206.822C468.227 206.311 468.117 205.928 467.898 205.674C467.68 205.416 467.338 205.287 466.873 205.287C466.264 205.287 465.816 205.471 465.531 205.838C465.25 206.201 465.109 206.799 465.109 207.631V211H464.137V204.578H464.928L465.086 205.457H465.133C465.316 205.145 465.574 204.9 465.906 204.725C466.242 204.549 466.617 204.461 467.031 204.461C468.035 204.461 468.691 204.824 469 205.551H469.047C469.238 205.215 469.516 204.949 469.879 204.754C470.242 204.559 470.656 204.461 471.121 204.461C471.848 204.461 472.391 204.648 472.75 205.023C473.113 205.395 473.295 205.99 473.295 206.811V211H472.322ZM476.219 204.578V208.744C476.219 209.268 476.338 209.658 476.576 209.916C476.814 210.174 477.188 210.303 477.695 210.303C478.367 210.303 478.857 210.119 479.166 209.752C479.479 209.385 479.635 208.785 479.635 207.953V204.578H480.607V211H479.805L479.664 210.139H479.611C479.412 210.455 479.135 210.697 478.779 210.865C478.428 211.033 478.025 211.117 477.572 211.117C476.791 211.117 476.205 210.932 475.814 210.561C475.428 210.189 475.234 209.596 475.234 208.779V204.578H476.219ZM482.535 210.379C482.535 210.117 482.594 209.92 482.711 209.787C482.832 209.65 483.004 209.582 483.227 209.582C483.453 209.582 483.629 209.65 483.754 209.787C483.883 209.92 483.947 210.117 483.947 210.379C483.947 210.633 483.883 210.828 483.754 210.965C483.625 211.102 483.449 211.17 483.227 211.17C483.027 211.17 482.861 211.109 482.729 210.988C482.6 210.863 482.535 210.66 482.535 210.379Z" fill="#1F2A36"/>
<g clip-path="url(#clip0_243_114)">
<path d="M379.119 81.8057C377.18 81.8057 375.298 82.0424 373.493 82.4783C368.073 72.8983 357.792 66.4315 346 66.4315C334.208 66.4315 323.927 72.8986 318.507 82.4783C316.702 82.0424 314.82 81.8057 312.881 81.8057C299.692 81.8057 289 92.4977 289 105.687C289 118.877 299.692 129.569 312.881 129.569H338.905V115.378H327.048V115.226L345.775 95.6683H346.225L364.952 115.226V115.378H353.096V129.569H379.119C392.308 129.569 403 118.877 403 105.687C403 92.4977 392.308 81.8057 379.119 81.8057Z" fill="#9EA0A5"/>
</g>
<path d="M397.012 264.721C397.012 265.475 396.738 266.062 396.191 266.484C395.645 266.906 394.902 267.117 393.965 267.117C392.949 267.117 392.168 266.986 391.621 266.725V265.764C391.973 265.912 392.355 266.029 392.77 266.115C393.184 266.201 393.594 266.244 394 266.244C394.664 266.244 395.164 266.119 395.5 265.869C395.836 265.615 396.004 265.264 396.004 264.814C396.004 264.518 395.943 264.275 395.822 264.088C395.705 263.896 395.506 263.721 395.225 263.561C394.947 263.4 394.523 263.219 393.953 263.016C393.156 262.73 392.586 262.393 392.242 262.002C391.902 261.611 391.732 261.102 391.732 260.473C391.732 259.812 391.98 259.287 392.477 258.896C392.973 258.506 393.629 258.311 394.445 258.311C395.297 258.311 396.08 258.467 396.795 258.779L396.484 259.646C395.777 259.35 395.09 259.201 394.422 259.201C393.895 259.201 393.482 259.314 393.186 259.541C392.889 259.768 392.74 260.082 392.74 260.484C392.74 260.781 392.795 261.025 392.904 261.217C393.014 261.404 393.197 261.578 393.455 261.738C393.717 261.895 394.115 262.068 394.65 262.26C395.549 262.58 396.166 262.924 396.502 263.291C396.842 263.658 397.012 264.135 397.012 264.721ZM399.59 267H398.617V260.578H399.59V267ZM398.535 258.838C398.535 258.615 398.59 258.453 398.699 258.352C398.809 258.246 398.945 258.193 399.109 258.193C399.266 258.193 399.4 258.246 399.514 258.352C399.627 258.457 399.684 258.619 399.684 258.838C399.684 259.057 399.627 259.221 399.514 259.33C399.4 259.436 399.266 259.488 399.109 259.488C398.945 259.488 398.809 259.436 398.699 259.33C398.59 259.221 398.535 259.057 398.535 258.838ZM405.76 267H401.102V266.338L404.605 261.334H401.318V260.578H405.672V261.334L402.215 266.244H405.76V267ZM409.979 267.117C409.029 267.117 408.279 266.828 407.729 266.25C407.182 265.672 406.908 264.869 406.908 263.842C406.908 262.807 407.162 261.984 407.67 261.375C408.182 260.766 408.867 260.461 409.727 260.461C410.531 260.461 411.168 260.727 411.637 261.258C412.105 261.785 412.34 262.482 412.34 263.35V263.965H407.916C407.936 264.719 408.125 265.291 408.484 265.682C408.848 266.072 409.357 266.268 410.014 266.268C410.705 266.268 411.389 266.123 412.064 265.834V266.701C411.721 266.85 411.395 266.955 411.086 267.018C410.781 267.084 410.412 267.117 409.979 267.117ZM409.715 261.275C409.199 261.275 408.787 261.443 408.479 261.779C408.174 262.115 407.994 262.58 407.939 263.174H411.297C411.297 262.561 411.16 262.092 410.887 261.768C410.613 261.439 410.223 261.275 409.715 261.275ZM395.189 283H394.24V276.895C394.24 276.387 394.256 275.906 394.287 275.453C394.205 275.535 394.113 275.621 394.012 275.711C393.91 275.801 393.445 276.182 392.617 276.854L392.102 276.186L394.369 274.434H395.189V283ZM404.131 278.705C404.131 280.186 403.896 281.291 403.428 282.021C402.963 282.752 402.25 283.117 401.289 283.117C400.367 283.117 399.666 282.744 399.186 281.998C398.705 281.248 398.465 280.15 398.465 278.705C398.465 277.213 398.697 276.105 399.162 275.383C399.627 274.66 400.336 274.299 401.289 274.299C402.219 274.299 402.924 274.676 403.404 275.43C403.889 276.184 404.131 277.275 404.131 278.705ZM399.449 278.705C399.449 279.951 399.596 280.859 399.889 281.43C400.182 281.996 400.648 282.279 401.289 282.279C401.938 282.279 402.406 281.992 402.695 281.418C402.988 280.84 403.135 279.936 403.135 278.705C403.135 277.475 402.988 276.574 402.695 276.004C402.406 275.43 401.938 275.143 401.289 275.143C400.648 275.143 400.182 275.426 399.889 275.992C399.596 276.555 399.449 277.459 399.449 278.705ZM408.156 274.311C408.938 274.311 409.557 274.492 410.014 274.855C410.471 275.219 410.699 275.721 410.699 276.361C410.699 276.783 410.568 277.168 410.307 277.516C410.045 277.863 409.627 278.18 409.053 278.465C409.748 278.797 410.242 279.146 410.535 279.514C410.828 279.877 410.975 280.299 410.975 280.779C410.975 281.49 410.727 282.059 410.23 282.484C409.734 282.906 409.055 283.117 408.191 283.117C407.277 283.117 406.574 282.918 406.082 282.52C405.59 282.117 405.344 281.549 405.344 280.814C405.344 279.834 405.941 279.07 407.137 278.523C406.598 278.219 406.211 277.891 405.977 277.539C405.742 277.184 405.625 276.787 405.625 276.35C405.625 275.729 405.854 275.234 406.311 274.867C406.771 274.496 407.387 274.311 408.156 274.311ZM406.305 280.838C406.305 281.307 406.467 281.672 406.791 281.934C407.119 282.195 407.578 282.326 408.168 282.326C408.75 282.326 409.203 282.189 409.527 281.916C409.852 281.643 410.014 281.268 410.014 280.791C410.014 280.412 409.861 280.076 409.557 279.783C409.252 279.486 408.721 279.199 407.963 278.922C407.381 279.172 406.959 279.449 406.697 279.754C406.436 280.055 406.305 280.416 406.305 280.838ZM408.145 275.102C407.656 275.102 407.273 275.219 406.996 275.453C406.719 275.688 406.58 276 406.58 276.391C406.58 276.75 406.695 277.059 406.926 277.316C407.156 277.574 407.582 277.832 408.203 278.09C408.762 277.855 409.156 277.604 409.387 277.334C409.621 277.064 409.738 276.75 409.738 276.391C409.738 275.996 409.596 275.684 409.311 275.453C409.029 275.219 408.641 275.102 408.145 275.102ZM417.865 278.705C417.865 280.186 417.631 281.291 417.162 282.021C416.697 282.752 415.984 283.117 415.023 283.117C414.102 283.117 413.4 282.744 412.92 281.998C412.439 281.248 412.199 280.15 412.199 278.705C412.199 277.213 412.432 276.105 412.896 275.383C413.361 274.66 414.07 274.299 415.023 274.299C415.953 274.299 416.658 274.676 417.139 275.43C417.623 276.184 417.865 277.275 417.865 278.705ZM413.184 278.705C413.184 279.951 413.33 280.859 413.623 281.43C413.916 281.996 414.383 282.279 415.023 282.279C415.672 282.279 416.141 281.992 416.43 281.418C416.723 280.84 416.869 279.936 416.869 278.705C416.869 277.475 416.723 276.574 416.43 276.004C416.141 275.43 415.672 275.143 415.023 275.143C414.383 275.143 413.916 275.426 413.623 275.992C413.33 276.555 413.184 277.459 413.184 278.705ZM421.047 279.713L418.814 276.578H419.922L421.615 279.039L423.303 276.578H424.398L422.166 279.713L424.516 283H423.414L421.615 280.398L419.799 283H418.697L421.047 279.713ZM428.951 283H428.002V276.895C428.002 276.387 428.018 275.906 428.049 275.453C427.967 275.535 427.875 275.621 427.773 275.711C427.672 275.801 427.207 276.182 426.379 276.854L425.863 276.186L428.131 274.434H428.951V283ZM437.846 278.09C437.846 281.441 436.549 283.117 433.955 283.117C433.502 283.117 433.143 283.078 432.877 283V282.162C433.189 282.264 433.545 282.314 433.943 282.314C434.881 282.314 435.588 282.025 436.064 281.447C436.545 280.865 436.807 279.975 436.85 278.775H436.779C436.564 279.1 436.279 279.348 435.924 279.52C435.568 279.688 435.168 279.771 434.723 279.771C433.965 279.771 433.363 279.545 432.918 279.092C432.473 278.639 432.25 278.006 432.25 277.193C432.25 276.303 432.498 275.6 432.994 275.084C433.494 274.568 434.15 274.311 434.963 274.311C435.545 274.311 436.053 274.461 436.486 274.762C436.924 275.059 437.26 275.494 437.494 276.068C437.729 276.639 437.846 277.312 437.846 278.09ZM434.963 275.143C434.404 275.143 433.973 275.322 433.668 275.682C433.363 276.041 433.211 276.541 433.211 277.182C433.211 277.744 433.352 278.188 433.633 278.512C433.914 278.832 434.342 278.992 434.916 278.992C435.271 278.992 435.598 278.92 435.895 278.775C436.195 278.631 436.432 278.434 436.604 278.184C436.775 277.934 436.861 277.672 436.861 277.398C436.861 276.988 436.781 276.609 436.621 276.262C436.461 275.914 436.236 275.641 435.947 275.441C435.662 275.242 435.334 275.143 434.963 275.143ZM444.713 283H439.082V282.162L441.338 279.895C442.025 279.199 442.479 278.703 442.697 278.406C442.916 278.109 443.08 277.82 443.189 277.539C443.299 277.258 443.354 276.955 443.354 276.631C443.354 276.174 443.215 275.812 442.938 275.547C442.66 275.277 442.275 275.143 441.783 275.143C441.428 275.143 441.09 275.201 440.77 275.318C440.453 275.436 440.1 275.648 439.709 275.957L439.193 275.295C439.982 274.639 440.842 274.311 441.771 274.311C442.576 274.311 443.207 274.518 443.664 274.932C444.121 275.342 444.35 275.895 444.35 276.59C444.35 277.133 444.197 277.67 443.893 278.201C443.588 278.732 443.018 279.404 442.182 280.217L440.307 282.051V282.098H444.713V283ZM451.627 278.705C451.627 280.186 451.393 281.291 450.924 282.021C450.459 282.752 449.746 283.117 448.785 283.117C447.863 283.117 447.162 282.744 446.682 281.998C446.201 281.248 445.961 280.15 445.961 278.705C445.961 277.213 446.193 276.105 446.658 275.383C447.123 274.66 447.832 274.299 448.785 274.299C449.715 274.299 450.42 274.676 450.9 275.43C451.385 276.184 451.627 277.275 451.627 278.705ZM446.945 278.705C446.945 279.951 447.092 280.859 447.385 281.43C447.678 281.996 448.145 282.279 448.785 282.279C449.434 282.279 449.902 281.992 450.191 281.418C450.484 280.84 450.631 279.936 450.631 278.705C450.631 277.475 450.484 276.574 450.191 276.004C449.902 275.43 449.434 275.143 448.785 275.143C448.145 275.143 447.678 275.426 447.385 275.992C447.092 276.555 446.945 277.459 446.945 278.705ZM461.922 279.783C461.922 280.83 461.658 281.648 461.131 282.238C460.604 282.824 459.875 283.117 458.945 283.117C458.371 283.117 457.861 282.982 457.416 282.713C456.971 282.443 456.627 282.057 456.385 281.553C456.143 281.049 456.021 280.459 456.021 279.783C456.021 278.736 456.283 277.922 456.807 277.34C457.33 276.754 458.057 276.461 458.986 276.461C459.885 276.461 460.598 276.76 461.125 277.357C461.656 277.955 461.922 278.764 461.922 279.783ZM457.029 279.783C457.029 280.604 457.193 281.229 457.521 281.658C457.85 282.088 458.332 282.303 458.969 282.303C459.605 282.303 460.088 282.09 460.416 281.664C460.748 281.234 460.914 280.607 460.914 279.783C460.914 278.967 460.748 278.348 460.416 277.926C460.088 277.5 459.602 277.287 458.957 277.287C458.32 277.287 457.84 277.496 457.516 277.914C457.191 278.332 457.029 278.955 457.029 279.783ZM466.562 276.461C466.848 276.461 467.104 276.484 467.33 276.531L467.195 277.434C466.93 277.375 466.695 277.346 466.492 277.346C465.973 277.346 465.527 277.557 465.156 277.979C464.789 278.4 464.605 278.926 464.605 279.555V283H463.633V276.578H464.436L464.547 277.768H464.594C464.832 277.35 465.119 277.027 465.455 276.801C465.791 276.574 466.16 276.461 466.562 276.461ZM471.303 279.338C471.303 277.654 471.629 276.396 472.281 275.564C472.938 274.729 473.906 274.311 475.188 274.311C475.629 274.311 475.977 274.348 476.23 274.422V275.26C475.93 275.162 475.586 275.113 475.199 275.113C474.281 275.113 473.58 275.4 473.096 275.975C472.611 276.545 472.346 277.443 472.299 278.67H472.369C472.799 277.998 473.479 277.662 474.408 277.662C475.178 277.662 475.783 277.895 476.225 278.359C476.67 278.824 476.893 279.455 476.893 280.252C476.893 281.143 476.648 281.844 476.16 282.355C475.676 282.863 475.02 283.117 474.191 283.117C473.305 283.117 472.602 282.785 472.082 282.121C471.562 281.453 471.303 280.525 471.303 279.338ZM474.18 282.291C474.734 282.291 475.164 282.117 475.469 281.77C475.777 281.418 475.932 280.912 475.932 280.252C475.932 279.686 475.789 279.24 475.504 278.916C475.219 278.592 474.793 278.43 474.227 278.43C473.875 278.43 473.553 278.502 473.26 278.646C472.967 278.791 472.732 278.99 472.557 279.244C472.385 279.498 472.299 279.762 472.299 280.035C472.299 280.438 472.377 280.812 472.533 281.16C472.689 281.508 472.91 281.783 473.195 281.986C473.484 282.189 473.812 282.291 474.18 282.291ZM483.748 278.705C483.748 280.186 483.514 281.291 483.045 282.021C482.58 282.752 481.867 283.117 480.906 283.117C479.984 283.117 479.283 282.744 478.803 281.998C478.322 281.248 478.082 280.15 478.082 278.705C478.082 277.213 478.314 276.105 478.779 275.383C479.244 274.66 479.953 274.299 480.906 274.299C481.836 274.299 482.541 274.676 483.021 275.43C483.506 276.184 483.748 277.275 483.748 278.705ZM479.066 278.705C479.066 279.951 479.213 280.859 479.506 281.43C479.799 281.996 480.266 282.279 480.906 282.279C481.555 282.279 482.023 281.992 482.312 281.418C482.605 280.84 482.752 279.936 482.752 278.705C482.752 277.475 482.605 276.574 482.312 276.004C482.023 275.43 481.555 275.143 480.906 275.143C480.266 275.143 479.799 275.426 479.506 275.992C479.213 276.555 479.066 277.459 479.066 278.705ZM490.615 278.705C490.615 280.186 490.381 281.291 489.912 282.021C489.447 282.752 488.734 283.117 487.773 283.117C486.852 283.117 486.15 282.744 485.67 281.998C485.189 281.248 484.949 280.15 484.949 278.705C484.949 277.213 485.182 276.105 485.646 275.383C486.111 274.66 486.82 274.299 487.773 274.299C488.703 274.299 489.408 274.676 489.889 275.43C490.373 276.184 490.615 277.275 490.615 278.705ZM485.934 278.705C485.934 279.951 486.08 280.859 486.373 281.43C486.666 281.996 487.133 282.279 487.773 282.279C488.422 282.279 488.891 281.992 489.18 281.418C489.473 280.84 489.619 279.936 489.619 278.705C489.619 277.475 489.473 276.574 489.18 276.004C488.891 275.43 488.422 275.143 487.773 275.143C487.133 275.143 486.666 275.426 486.373 275.992C486.08 276.555 485.934 277.459 485.934 278.705ZM493.797 279.713L491.564 276.578H492.672L494.365 279.039L496.053 276.578H497.148L494.916 279.713L497.266 283H496.164L494.365 280.398L492.549 283H491.447L493.797 279.713ZM500.934 274.311C501.715 274.311 502.334 274.492 502.791 274.855C503.248 275.219 503.477 275.721 503.477 276.361C503.477 276.783 503.346 277.168 503.084 277.516C502.822 277.863 502.404 278.18 501.83 278.465C502.525 278.797 503.02 279.146 503.312 279.514C503.605 279.877 503.752 280.299 503.752 280.779C503.752 281.49 503.504 282.059 503.008 282.484C502.512 282.906 501.832 283.117 500.969 283.117C500.055 283.117 499.352 282.918 498.859 282.52C498.367 282.117 498.121 281.549 498.121 280.814C498.121 279.834 498.719 279.07 499.914 278.523C499.375 278.219 498.988 277.891 498.754 277.539C498.52 277.184 498.402 276.787 498.402 276.35C498.402 275.729 498.631 275.234 499.088 274.867C499.549 274.496 500.164 274.311 500.934 274.311ZM499.082 280.838C499.082 281.307 499.244 281.672 499.568 281.934C499.896 282.195 500.355 282.326 500.945 282.326C501.527 282.326 501.98 282.189 502.305 281.916C502.629 281.643 502.791 281.268 502.791 280.791C502.791 280.412 502.639 280.076 502.334 279.783C502.029 279.486 501.498 279.199 500.74 278.922C500.158 279.172 499.736 279.449 499.475 279.754C499.213 280.055 499.082 280.416 499.082 280.838ZM500.922 275.102C500.434 275.102 500.051 275.219 499.773 275.453C499.496 275.688 499.357 276 499.357 276.391C499.357 276.75 499.473 277.059 499.703 277.316C499.934 277.574 500.359 277.832 500.98 278.09C501.539 277.855 501.934 277.604 502.164 277.334C502.398 277.064 502.516 276.75 502.516 276.391C502.516 275.996 502.373 275.684 502.088 275.453C501.807 275.219 501.418 275.102 500.922 275.102ZM510.643 278.705C510.643 280.186 510.408 281.291 509.939 282.021C509.475 282.752 508.762 283.117 507.801 283.117C506.879 283.117 506.178 282.744 505.697 281.998C505.217 281.248 504.977 280.15 504.977 278.705C504.977 277.213 505.209 276.105 505.674 275.383C506.139 274.66 506.848 274.299 507.801 274.299C508.73 274.299 509.436 274.676 509.916 275.43C510.4 276.184 510.643 277.275 510.643 278.705ZM505.961 278.705C505.961 279.951 506.107 280.859 506.4 281.43C506.693 281.996 507.16 282.279 507.801 282.279C508.449 282.279 508.918 281.992 509.207 281.418C509.5 280.84 509.646 279.936 509.646 278.705C509.646 277.475 509.5 276.574 509.207 276.004C508.918 275.43 508.449 275.143 507.801 275.143C507.16 275.143 506.693 275.426 506.4 275.992C506.107 276.555 505.961 277.459 505.961 278.705ZM517.51 278.705C517.51 280.186 517.275 281.291 516.807 282.021C516.342 282.752 515.629 283.117 514.668 283.117C513.746 283.117 513.045 282.744 512.564 281.998C512.084 281.248 511.844 280.15 511.844 278.705C511.844 277.213 512.076 276.105 512.541 275.383C513.006 274.66 513.715 274.299 514.668 274.299C515.598 274.299 516.303 274.676 516.783 275.43C517.268 276.184 517.51 277.275 517.51 278.705ZM512.828 278.705C512.828 279.951 512.975 280.859 513.268 281.43C513.561 281.996 514.027 282.279 514.668 282.279C515.316 282.279 515.785 281.992 516.074 281.418C516.367 280.84 516.514 279.936 516.514 278.705C516.514 277.475 516.367 276.574 516.074 276.004C515.785 275.43 515.316 275.143 514.668 275.143C514.027 275.143 513.561 275.426 513.268 275.992C512.975 276.555 512.828 277.459 512.828 278.705Z" fill="#1F2A36"/>
<g clip-path="url(#clip1_243_114)">
<path d="M374.622 258.378C374.35 258.107 373.909 258.107 373.638 258.378L363.899 268.117C363.627 268.389 363.627 268.83 363.899 269.101C364.035 269.236 364.213 269.304 364.391 269.304C364.569 269.304 364.747 269.236 364.882 269.101L374.622 259.362C374.893 259.091 374.893 258.65 374.622 258.378Z" fill="#9EA0A5"/>
<path d="M374.133 258.174C373.749 258.174 373.438 258.486 373.438 258.87V267.217C373.438 267.601 373.749 267.913 374.133 267.913C374.517 267.913 374.829 267.601 374.829 267.217V258.87C374.829 258.486 374.517 258.174 374.133 258.174Z" fill="#9EA0A5"/>
<path d="M374.133 258.174H365.786C365.402 258.174 365.09 258.486 365.09 258.87C365.09 259.254 365.402 259.565 365.786 259.565H374.133C374.517 259.565 374.829 259.253 374.829 258.869C374.829 258.485 374.517 258.174 374.133 258.174Z" fill="#9EA0A5"/>
<path d="M362.102 270.9C361.831 270.629 361.39 270.629 361.118 270.9L351.379 280.639C351.108 280.91 351.108 281.351 351.379 281.623C351.516 281.758 351.694 281.826 351.872 281.826C352.05 281.826 352.228 281.758 352.363 281.623L362.102 271.884C362.373 271.612 362.373 271.171 362.102 270.9Z" fill="#9EA0A5"/>
<path d="M351.87 272.087C351.486 272.087 351.174 272.399 351.174 272.783V281.13C351.174 281.514 351.486 281.826 351.87 281.826C352.253 281.826 352.565 281.514 352.565 281.13V272.783C352.565 272.399 352.253 272.087 351.87 272.087Z" fill="#9EA0A5"/>
<path d="M360.217 280.435H351.87C351.486 280.435 351.174 280.746 351.174 281.13C351.174 281.514 351.486 281.826 351.87 281.826H360.217C360.601 281.826 360.913 281.514 360.913 281.13C360.913 280.746 360.601 280.435 360.217 280.435Z" fill="#9EA0A5"/>
<path d="M376.913 254H349.087C347.936 254 347 254.936 347 256.087V283.913C347 285.064 347.936 286 349.087 286H376.913C378.064 286 379 285.064 379 283.913V256.087C379 254.936 378.064 254 376.913 254ZM377.609 283.913C377.609 284.296 377.296 284.609 376.913 284.609H349.087C348.704 284.609 348.391 284.296 348.391 283.913V256.087C348.391 255.704 348.704 255.391 349.087 255.391H376.913C377.296 255.391 377.609 255.704 377.609 256.087V283.913H377.609Z" fill="#9EA0A5"/>
</g>
<path d="M224.682 267H223.686V262.969H219.174V267H218.178V258.434H219.174V262.078H223.686V258.434H224.682V267ZM227.863 267H226.891V260.578H227.863V267ZM226.809 258.838C226.809 258.615 226.863 258.453 226.973 258.352C227.082 258.246 227.219 258.193 227.383 258.193C227.539 258.193 227.674 258.246 227.787 258.352C227.9 258.457 227.957 258.619 227.957 258.838C227.957 259.057 227.9 259.221 227.787 259.33C227.674 259.436 227.539 259.488 227.383 259.488C227.219 259.488 227.082 259.436 226.973 259.33C226.863 259.221 226.809 259.057 226.809 258.838ZM235.182 260.578V261.193L233.992 261.334C234.102 261.471 234.199 261.65 234.285 261.873C234.371 262.092 234.414 262.34 234.414 262.617C234.414 263.246 234.199 263.748 233.77 264.123C233.34 264.498 232.75 264.686 232 264.686C231.809 264.686 231.629 264.67 231.461 264.639C231.047 264.857 230.84 265.133 230.84 265.465C230.84 265.641 230.912 265.771 231.057 265.857C231.201 265.939 231.449 265.98 231.801 265.98H232.938C233.633 265.98 234.166 266.127 234.537 266.42C234.912 266.713 235.1 267.139 235.1 267.697C235.1 268.408 234.814 268.949 234.244 269.32C233.674 269.695 232.842 269.883 231.748 269.883C230.908 269.883 230.26 269.727 229.803 269.414C229.35 269.102 229.123 268.66 229.123 268.09C229.123 267.699 229.248 267.361 229.498 267.076C229.748 266.791 230.1 266.598 230.553 266.496C230.389 266.422 230.25 266.307 230.137 266.15C230.027 265.994 229.973 265.812 229.973 265.605C229.973 265.371 230.035 265.166 230.16 264.99C230.285 264.814 230.482 264.645 230.752 264.48C230.42 264.344 230.148 264.111 229.938 263.783C229.73 263.455 229.627 263.08 229.627 262.658C229.627 261.955 229.838 261.414 230.26 261.035C230.682 260.652 231.279 260.461 232.053 260.461C232.389 260.461 232.691 260.5 232.961 260.578H235.182ZM230.061 268.078C230.061 268.426 230.207 268.689 230.5 268.869C230.793 269.049 231.213 269.139 231.76 269.139C232.576 269.139 233.18 269.016 233.57 268.77C233.965 268.527 234.162 268.197 234.162 267.779C234.162 267.432 234.055 267.189 233.84 267.053C233.625 266.92 233.221 266.854 232.627 266.854H231.461C231.02 266.854 230.676 266.959 230.43 267.17C230.184 267.381 230.061 267.684 230.061 268.078ZM230.588 262.635C230.588 263.084 230.715 263.424 230.969 263.654C231.223 263.885 231.576 264 232.029 264C232.979 264 233.453 263.539 233.453 262.617C233.453 261.652 232.973 261.17 232.012 261.17C231.555 261.17 231.203 261.293 230.957 261.539C230.711 261.785 230.588 262.15 230.588 262.635ZM240.895 267V262.846C240.895 262.322 240.775 261.932 240.537 261.674C240.299 261.416 239.926 261.287 239.418 261.287C238.742 261.287 238.248 261.471 237.936 261.838C237.627 262.205 237.473 262.807 237.473 263.643V267H236.5V257.883H237.473V260.643C237.473 260.975 237.457 261.25 237.426 261.469H237.484C237.676 261.16 237.947 260.918 238.299 260.742C238.654 260.562 239.059 260.473 239.512 260.473C240.297 260.473 240.885 260.66 241.275 261.035C241.67 261.406 241.867 261.998 241.867 262.811V267H240.895ZM243.332 264.229V263.338H246.209V264.229H243.332ZM248.881 263.438V267H247.885V258.434H250.234C251.285 258.434 252.061 258.635 252.561 259.037C253.064 259.439 253.316 260.045 253.316 260.854C253.316 261.986 252.742 262.752 251.594 263.15L253.92 267H252.742L250.668 263.438H248.881ZM248.881 262.582H250.246C250.949 262.582 251.465 262.443 251.793 262.166C252.121 261.885 252.285 261.465 252.285 260.906C252.285 260.34 252.117 259.932 251.781 259.682C251.449 259.432 250.914 259.307 250.176 259.307H248.881V262.582ZM257.869 267.117C256.92 267.117 256.17 266.828 255.619 266.25C255.072 265.672 254.799 264.869 254.799 263.842C254.799 262.807 255.053 261.984 255.561 261.375C256.072 260.766 256.758 260.461 257.617 260.461C258.422 260.461 259.059 260.727 259.527 261.258C259.996 261.785 260.23 262.482 260.23 263.35V263.965H255.807C255.826 264.719 256.016 265.291 256.375 265.682C256.738 266.072 257.248 266.268 257.904 266.268C258.596 266.268 259.279 266.123 259.955 265.834V266.701C259.611 266.85 259.285 266.955 258.977 267.018C258.672 267.084 258.303 267.117 257.869 267.117ZM257.605 261.275C257.09 261.275 256.678 261.443 256.369 261.779C256.064 262.115 255.885 262.58 255.83 263.174H259.188C259.188 262.561 259.051 262.092 258.777 261.768C258.504 261.439 258.113 261.275 257.605 261.275ZM266.037 265.248C266.037 265.846 265.814 266.307 265.369 266.631C264.924 266.955 264.299 267.117 263.494 267.117C262.643 267.117 261.979 266.982 261.502 266.713V265.811C261.811 265.967 262.141 266.09 262.492 266.18C262.848 266.27 263.189 266.314 263.518 266.314C264.025 266.314 264.416 266.234 264.689 266.074C264.963 265.91 265.1 265.662 265.1 265.33C265.1 265.08 264.99 264.867 264.771 264.691C264.557 264.512 264.135 264.301 263.506 264.059C262.908 263.836 262.482 263.643 262.229 263.479C261.979 263.311 261.791 263.121 261.666 262.91C261.545 262.699 261.484 262.447 261.484 262.154C261.484 261.631 261.697 261.219 262.123 260.918C262.549 260.613 263.133 260.461 263.875 260.461C264.566 260.461 265.242 260.602 265.902 260.883L265.557 261.674C264.912 261.408 264.328 261.275 263.805 261.275C263.344 261.275 262.996 261.348 262.762 261.492C262.527 261.637 262.41 261.836 262.41 262.09C262.41 262.262 262.453 262.408 262.539 262.529C262.629 262.65 262.771 262.766 262.967 262.875C263.162 262.984 263.537 263.143 264.092 263.35C264.854 263.627 265.367 263.906 265.633 264.188C265.902 264.469 266.037 264.822 266.037 265.248ZM270.889 267V258.434H271.885V267H270.889ZM282.279 267V262.822C282.279 262.311 282.17 261.928 281.951 261.674C281.732 261.416 281.393 261.287 280.932 261.287C280.326 261.287 279.879 261.461 279.59 261.809C279.301 262.156 279.156 262.691 279.156 263.414V267H278.184V262.822C278.184 262.311 278.074 261.928 277.855 261.674C277.637 261.416 277.295 261.287 276.83 261.287C276.221 261.287 275.773 261.471 275.488 261.838C275.207 262.201 275.066 262.799 275.066 263.631V267H274.094V260.578H274.885L275.043 261.457H275.09C275.273 261.145 275.531 260.9 275.863 260.725C276.199 260.549 276.574 260.461 276.988 260.461C277.992 260.461 278.648 260.824 278.957 261.551H279.004C279.195 261.215 279.473 260.949 279.836 260.754C280.199 260.559 280.613 260.461 281.078 260.461C281.805 260.461 282.348 260.648 282.707 261.023C283.07 261.395 283.252 261.99 283.252 262.811V267H282.279ZM289.211 267L289.018 266.086H288.971C288.65 266.488 288.33 266.762 288.01 266.906C287.693 267.047 287.297 267.117 286.82 267.117C286.184 267.117 285.684 266.953 285.32 266.625C284.961 266.297 284.781 265.83 284.781 265.225C284.781 263.928 285.818 263.248 287.893 263.186L288.982 263.15V262.752C288.982 262.248 288.873 261.877 288.654 261.639C288.439 261.396 288.094 261.275 287.617 261.275C287.082 261.275 286.477 261.439 285.801 261.768L285.502 261.023C285.818 260.852 286.164 260.717 286.539 260.619C286.918 260.521 287.297 260.473 287.676 260.473C288.441 260.473 289.008 260.643 289.375 260.982C289.746 261.322 289.932 261.867 289.932 262.617V267H289.211ZM287.014 266.314C287.619 266.314 288.094 266.148 288.438 265.816C288.785 265.484 288.959 265.02 288.959 264.422V263.842L287.986 263.883C287.213 263.91 286.654 264.031 286.311 264.246C285.971 264.457 285.801 264.787 285.801 265.236C285.801 265.588 285.906 265.855 286.117 266.039C286.332 266.223 286.631 266.314 287.014 266.314ZM297.197 260.578V261.193L296.008 261.334C296.117 261.471 296.215 261.65 296.301 261.873C296.387 262.092 296.43 262.34 296.43 262.617C296.43 263.246 296.215 263.748 295.785 264.123C295.355 264.498 294.766 264.686 294.016 264.686C293.824 264.686 293.645 264.67 293.477 264.639C293.062 264.857 292.855 265.133 292.855 265.465C292.855 265.641 292.928 265.771 293.072 265.857C293.217 265.939 293.465 265.98 293.816 265.98H294.953C295.648 265.98 296.182 266.127 296.553 266.42C296.928 266.713 297.115 267.139 297.115 267.697C297.115 268.408 296.83 268.949 296.26 269.32C295.689 269.695 294.857 269.883 293.764 269.883C292.924 269.883 292.275 269.727 291.818 269.414C291.365 269.102 291.139 268.66 291.139 268.09C291.139 267.699 291.264 267.361 291.514 267.076C291.764 266.791 292.115 266.598 292.568 266.496C292.404 266.422 292.266 266.307 292.152 266.15C292.043 265.994 291.988 265.812 291.988 265.605C291.988 265.371 292.051 265.166 292.176 264.99C292.301 264.814 292.498 264.645 292.768 264.48C292.436 264.344 292.164 264.111 291.953 263.783C291.746 263.455 291.643 263.08 291.643 262.658C291.643 261.955 291.854 261.414 292.275 261.035C292.697 260.652 293.295 260.461 294.068 260.461C294.404 260.461 294.707 260.5 294.977 260.578H297.197ZM292.076 268.078C292.076 268.426 292.223 268.689 292.516 268.869C292.809 269.049 293.229 269.139 293.775 269.139C294.592 269.139 295.195 269.016 295.586 268.77C295.98 268.527 296.178 268.197 296.178 267.779C296.178 267.432 296.07 267.189 295.855 267.053C295.641 266.92 295.236 266.854 294.643 266.854H293.477C293.035 266.854 292.691 266.959 292.445 267.17C292.199 267.381 292.076 267.684 292.076 268.078ZM292.604 262.635C292.604 263.084 292.73 263.424 292.984 263.654C293.238 263.885 293.592 264 294.045 264C294.994 264 295.469 263.539 295.469 262.617C295.469 261.652 294.988 261.17 294.027 261.17C293.57 261.17 293.219 261.293 292.973 261.539C292.727 261.785 292.604 262.15 292.604 262.635ZM301.229 267.117C300.279 267.117 299.529 266.828 298.979 266.25C298.432 265.672 298.158 264.869 298.158 263.842C298.158 262.807 298.412 261.984 298.92 261.375C299.432 260.766 300.117 260.461 300.977 260.461C301.781 260.461 302.418 260.727 302.887 261.258C303.355 261.785 303.59 262.482 303.59 263.35V263.965H299.166C299.186 264.719 299.375 265.291 299.734 265.682C300.098 266.072 300.607 266.268 301.264 266.268C301.955 266.268 302.639 266.123 303.314 265.834V266.701C302.971 266.85 302.645 266.955 302.336 267.018C302.031 267.084 301.662 267.117 301.229 267.117ZM300.965 261.275C300.449 261.275 300.037 261.443 299.729 261.779C299.424 262.115 299.244 262.58 299.189 263.174H302.547C302.547 262.561 302.41 262.092 302.137 261.768C301.863 261.439 301.473 261.275 300.965 261.275ZM223.609 276.93C223.609 277.797 223.312 278.465 222.719 278.934C222.129 279.398 221.283 279.631 220.182 279.631H219.174V283H218.178V274.434H220.398C222.539 274.434 223.609 275.266 223.609 276.93ZM219.174 278.775H220.07C220.953 278.775 221.592 278.633 221.986 278.348C222.381 278.062 222.578 277.605 222.578 276.977C222.578 276.41 222.393 275.988 222.021 275.711C221.65 275.434 221.072 275.295 220.287 275.295H219.174V278.775ZM232.1 283H230.963L226.281 275.811H226.234C226.297 276.654 226.328 277.428 226.328 278.131V283H225.408V274.434H226.533L231.203 281.594H231.25C231.242 281.488 231.225 281.15 231.197 280.58C231.17 280.006 231.16 279.596 231.168 279.35V274.434H232.1V283ZM238.223 278.512H241.135V282.678C240.682 282.822 240.221 282.932 239.752 283.006C239.283 283.08 238.74 283.117 238.123 283.117C236.826 283.117 235.816 282.732 235.094 281.963C234.371 281.189 234.01 280.107 234.01 278.717C234.01 277.826 234.188 277.047 234.543 276.379C234.902 275.707 235.418 275.195 236.09 274.844C236.762 274.488 237.549 274.311 238.451 274.311C239.365 274.311 240.217 274.479 241.006 274.814L240.619 275.693C239.846 275.365 239.102 275.201 238.387 275.201C237.344 275.201 236.529 275.512 235.943 276.133C235.357 276.754 235.064 277.615 235.064 278.717C235.064 279.873 235.346 280.75 235.908 281.348C236.475 281.945 237.305 282.244 238.398 282.244C238.992 282.244 239.572 282.176 240.139 282.039V279.402H238.223V278.512ZM244.07 281.605L244.158 281.74C244.057 282.131 243.91 282.584 243.719 283.1C243.527 283.619 243.328 284.102 243.121 284.547H242.389C242.494 284.141 242.609 283.639 242.734 283.041C242.863 282.443 242.953 281.965 243.004 281.605H244.07ZM248.008 285.256C247.641 285.256 247.352 285.203 247.141 285.098V284.248C247.418 284.326 247.707 284.365 248.008 284.365C248.395 284.365 248.688 284.248 248.887 284.014C249.09 283.779 249.191 283.441 249.191 283V274.434H250.188V282.918C250.188 283.66 250 284.234 249.625 284.641C249.25 285.051 248.711 285.256 248.008 285.256ZM257.898 276.93C257.898 277.797 257.602 278.465 257.008 278.934C256.418 279.398 255.572 279.631 254.471 279.631H253.463V283H252.467V274.434H254.688C256.828 274.434 257.898 275.266 257.898 276.93ZM253.463 278.775H254.359C255.242 278.775 255.881 278.633 256.275 278.348C256.67 278.062 256.867 277.605 256.867 276.977C256.867 276.41 256.682 275.988 256.311 275.711C255.939 275.434 255.361 275.295 254.576 275.295H253.463V278.775ZM263.465 278.512H266.377V282.678C265.924 282.822 265.463 282.932 264.994 283.006C264.525 283.08 263.982 283.117 263.365 283.117C262.068 283.117 261.059 282.732 260.336 281.963C259.613 281.189 259.252 280.107 259.252 278.717C259.252 277.826 259.43 277.047 259.785 276.379C260.145 275.707 260.66 275.195 261.332 274.844C262.004 274.488 262.791 274.311 263.693 274.311C264.607 274.311 265.459 274.479 266.248 274.814L265.861 275.693C265.088 275.365 264.344 275.201 263.629 275.201C262.586 275.201 261.771 275.512 261.186 276.133C260.6 276.754 260.307 277.615 260.307 278.717C260.307 279.873 260.588 280.75 261.15 281.348C261.717 281.945 262.547 282.244 263.641 282.244C264.234 282.244 264.814 282.176 265.381 282.039V279.402H263.465V278.512ZM276.953 279.783C276.953 280.83 276.689 281.648 276.162 282.238C275.635 282.824 274.906 283.117 273.977 283.117C273.402 283.117 272.893 282.982 272.447 282.713C272.002 282.443 271.658 282.057 271.416 281.553C271.174 281.049 271.053 280.459 271.053 279.783C271.053 278.736 271.314 277.922 271.838 277.34C272.361 276.754 273.088 276.461 274.018 276.461C274.916 276.461 275.629 276.76 276.156 277.357C276.688 277.955 276.953 278.764 276.953 279.783ZM272.061 279.783C272.061 280.604 272.225 281.229 272.553 281.658C272.881 282.088 273.363 282.303 274 282.303C274.637 282.303 275.119 282.09 275.447 281.664C275.779 281.234 275.945 280.607 275.945 279.783C275.945 278.967 275.779 278.348 275.447 277.926C275.119 277.5 274.633 277.287 273.988 277.287C273.352 277.287 272.871 277.496 272.547 277.914C272.223 278.332 272.061 278.955 272.061 279.783ZM281.594 276.461C281.879 276.461 282.135 276.484 282.361 276.531L282.227 277.434C281.961 277.375 281.727 277.346 281.523 277.346C281.004 277.346 280.559 277.557 280.188 277.979C279.82 278.4 279.637 278.926 279.637 279.555V283H278.664V276.578H279.467L279.578 277.768H279.625C279.863 277.35 280.15 277.027 280.486 276.801C280.822 276.574 281.191 276.461 281.594 276.461ZM290.594 278.512H293.506V282.678C293.053 282.822 292.592 282.932 292.123 283.006C291.654 283.08 291.111 283.117 290.494 283.117C289.197 283.117 288.188 282.732 287.465 281.963C286.742 281.189 286.381 280.107 286.381 278.717C286.381 277.826 286.559 277.047 286.914 276.379C287.273 275.707 287.789 275.195 288.461 274.844C289.133 274.488 289.92 274.311 290.822 274.311C291.736 274.311 292.588 274.479 293.377 274.814L292.99 275.693C292.217 275.365 291.473 275.201 290.758 275.201C289.715 275.201 288.9 275.512 288.314 276.133C287.729 276.754 287.436 277.615 287.436 278.717C287.436 279.873 287.717 280.75 288.279 281.348C288.846 281.945 289.676 282.244 290.77 282.244C291.363 282.244 291.943 282.176 292.51 282.039V279.402H290.594V278.512ZM295.568 283V274.434H296.564V283H295.568ZM299.916 283H298.92V274.434H303.695V275.318H299.916V278.453H303.467V279.338H299.916V283Z" fill="#1F2A36"/>
<g clip-path="url(#clip2_243_114)">
<path d="M202 254H176C174.343 254 173 255.343 173 257V283C173 284.657 174.343 286 176 286H202C203.657 286 205 284.657 205 283V257C205 255.343 203.657 254 202 254ZM203 283C203 283.552 202.552 284 202 284H176C175.448 284 175 283.552 175 283V257C175 256.448 175.448 256 176 256H202C202.552 256 203 256.448 203 257V283Z" fill="#9EA0A5"/>
<path d="M194.71 271.29C194.32 270.902 193.69 270.902 193.3 271.29L191 273.59L186.71 269.3C186.32 268.912 185.69 268.912 185.3 269.3L178.3 276.3C177.913 276.694 177.919 277.327 178.314 277.714C178.497 277.894 178.743 277.996 179 278H199C199.552 278.003 200.002 277.558 200.005 277.006C200.007 276.737 199.9 276.479 199.71 276.29L194.71 271.29Z" fill="#9EA0A5"/>
<path d="M192 268C193.657 268 195 266.657 195 265C195 263.343 193.657 262 192 262C190.343 262 189 263.343 189 265C189 266.657 190.343 268 192 268Z" fill="#9EA0A5"/>
</g>
<defs>
<clipPath id="clip0_243_114">
<rect width="114" height="114" fill="white" transform="translate(289 41)"/>
</clipPath>
<clipPath id="clip1_243_114">
<rect width="32" height="32" fill="white" transform="translate(347 254)"/>
</clipPath>
<clipPath id="clip2_243_114">
<rect width="32" height="32" fill="white" transform="translate(173 254)"/>
</clipPath>
</defs>
</svg>
